G04 #@! TF.GenerationSoftware,KiCad,Pcbnew,(5.1.4)-1*
G04 #@! TF.CreationDate,2020-01-29T13:18:04+01:00*
G04 #@! TF.ProjectId,OneWire_Adapter,4f6e6557-6972-4655-9f41-646170746572,1.0*
G04 #@! TF.SameCoordinates,Original*
G04 #@! TF.FileFunction,Copper,L1,Top*
G04 #@! TF.FilePolarity,Positive*
%FSLAX46Y46*%
G04 Gerber Fmt 4.6, Leading zero omitted, Abs format (unit mm)*
G04 Created by KiCad (PCBNEW (5.1.4)-1) date 2020-01-29 13:18:04*
%MOMM*%
%LPD*%
G04 APERTURE LIST*
%ADD10C,0.150000*%
%ADD11C,0.200000*%
%ADD12C,6.400000*%
%ADD13C,0.800000*%
%ADD14O,1.700000X1.700000*%
%ADD15R,1.700000X1.700000*%
%ADD16R,1.500000X1.050000*%
%ADD17O,1.500000X1.050000*%
%ADD18O,1.600000X1.600000*%
%ADD19C,1.600000*%
%ADD20C,0.250000*%
%ADD21C,0.254000*%
G04 APERTURE END LIST*
D10*
X140246428Y-114135380D02*
X139675000Y-114135380D01*
X139960714Y-114135380D02*
X139960714Y-113135380D01*
X139865476Y-113278238D01*
X139770238Y-113373476D01*
X139675000Y-113421095D01*
X140675000Y-114040142D02*
X140722619Y-114087761D01*
X140675000Y-114135380D01*
X140627380Y-114087761D01*
X140675000Y-114040142D01*
X140675000Y-114135380D01*
X141341666Y-113135380D02*
X141436904Y-113135380D01*
X141532142Y-113183000D01*
X141579761Y-113230619D01*
X141627380Y-113325857D01*
X141675000Y-113516333D01*
X141675000Y-113754428D01*
X141627380Y-113944904D01*
X141579761Y-114040142D01*
X141532142Y-114087761D01*
X141436904Y-114135380D01*
X141341666Y-114135380D01*
X141246428Y-114087761D01*
X141198809Y-114040142D01*
X141151190Y-113944904D01*
X141103571Y-113754428D01*
X141103571Y-113516333D01*
X141151190Y-113325857D01*
X141198809Y-113230619D01*
X141246428Y-113183000D01*
X141341666Y-113135380D01*
D11*
X141595714Y-85560380D02*
X141024285Y-85560380D01*
X141310000Y-85560380D02*
X141310000Y-84560380D01*
X141214761Y-84703238D01*
X141119523Y-84798476D01*
X141024285Y-84846095D01*
X132881428Y-110849380D02*
X132881428Y-111658904D01*
X132929047Y-111754142D01*
X132976666Y-111801761D01*
X133071904Y-111849380D01*
X133262380Y-111849380D01*
X133357619Y-111801761D01*
X133405238Y-111754142D01*
X133452857Y-111658904D01*
X133452857Y-110849380D01*
X133881428Y-111801761D02*
X134024285Y-111849380D01*
X134262380Y-111849380D01*
X134357619Y-111801761D01*
X134405238Y-111754142D01*
X134452857Y-111658904D01*
X134452857Y-111563666D01*
X134405238Y-111468428D01*
X134357619Y-111420809D01*
X134262380Y-111373190D01*
X134071904Y-111325571D01*
X133976666Y-111277952D01*
X133929047Y-111230333D01*
X133881428Y-111135095D01*
X133881428Y-111039857D01*
X133929047Y-110944619D01*
X133976666Y-110897000D01*
X134071904Y-110849380D01*
X134310000Y-110849380D01*
X134452857Y-110897000D01*
X134833809Y-111563666D02*
X135310000Y-111563666D01*
X134738571Y-111849380D02*
X135071904Y-110849380D01*
X135405238Y-111849380D01*
X136310000Y-111849380D02*
X135976666Y-111373190D01*
X135738571Y-111849380D02*
X135738571Y-110849380D01*
X136119523Y-110849380D01*
X136214761Y-110897000D01*
X136262380Y-110944619D01*
X136310000Y-111039857D01*
X136310000Y-111182714D01*
X136262380Y-111277952D01*
X136214761Y-111325571D01*
X136119523Y-111373190D01*
X135738571Y-111373190D01*
X136595714Y-110849380D02*
X137167142Y-110849380D01*
X136881428Y-111849380D02*
X136881428Y-110849380D01*
X138214761Y-110801761D02*
X137357619Y-112087476D01*
X139071904Y-111849380D02*
X138500476Y-111849380D01*
X138786190Y-111849380D02*
X138786190Y-110849380D01*
X138690952Y-110992238D01*
X138595714Y-111087476D01*
X138500476Y-111135095D01*
X139500476Y-111468428D02*
X140262380Y-111468428D01*
X140643333Y-110849380D02*
X140881428Y-111849380D01*
X141071904Y-111135095D01*
X141262380Y-111849380D01*
X141500476Y-110849380D01*
X141881428Y-111849380D02*
X141881428Y-111182714D01*
X141881428Y-110849380D02*
X141833809Y-110897000D01*
X141881428Y-110944619D01*
X141929047Y-110897000D01*
X141881428Y-110849380D01*
X141881428Y-110944619D01*
X142357619Y-111849380D02*
X142357619Y-111182714D01*
X142357619Y-111373190D02*
X142405238Y-111277952D01*
X142452857Y-111230333D01*
X142548095Y-111182714D01*
X142643333Y-111182714D01*
X143357619Y-111801761D02*
X143262380Y-111849380D01*
X143071904Y-111849380D01*
X142976666Y-111801761D01*
X142929047Y-111706523D01*
X142929047Y-111325571D01*
X142976666Y-111230333D01*
X143071904Y-111182714D01*
X143262380Y-111182714D01*
X143357619Y-111230333D01*
X143405238Y-111325571D01*
X143405238Y-111420809D01*
X142929047Y-111516047D01*
X144548095Y-111563666D02*
X145024285Y-111563666D01*
X144452857Y-111849380D02*
X144786190Y-110849380D01*
X145119523Y-111849380D01*
X145881428Y-111849380D02*
X145881428Y-110849380D01*
X145881428Y-111801761D02*
X145786190Y-111849380D01*
X145595714Y-111849380D01*
X145500476Y-111801761D01*
X145452857Y-111754142D01*
X145405238Y-111658904D01*
X145405238Y-111373190D01*
X145452857Y-111277952D01*
X145500476Y-111230333D01*
X145595714Y-111182714D01*
X145786190Y-111182714D01*
X145881428Y-111230333D01*
X146786190Y-111849380D02*
X146786190Y-111325571D01*
X146738571Y-111230333D01*
X146643333Y-111182714D01*
X146452857Y-111182714D01*
X146357619Y-111230333D01*
X146786190Y-111801761D02*
X146690952Y-111849380D01*
X146452857Y-111849380D01*
X146357619Y-111801761D01*
X146310000Y-111706523D01*
X146310000Y-111611285D01*
X146357619Y-111516047D01*
X146452857Y-111468428D01*
X146690952Y-111468428D01*
X146786190Y-111420809D01*
X147262380Y-111182714D02*
X147262380Y-112182714D01*
X147262380Y-111230333D02*
X147357619Y-111182714D01*
X147548095Y-111182714D01*
X147643333Y-111230333D01*
X147690952Y-111277952D01*
X147738571Y-111373190D01*
X147738571Y-111658904D01*
X147690952Y-111754142D01*
X147643333Y-111801761D01*
X147548095Y-111849380D01*
X147357619Y-111849380D01*
X147262380Y-111801761D01*
X148024285Y-111182714D02*
X148405238Y-111182714D01*
X148167142Y-110849380D02*
X148167142Y-111706523D01*
X148214761Y-111801761D01*
X148310000Y-111849380D01*
X148405238Y-111849380D01*
X149119523Y-111801761D02*
X149024285Y-111849380D01*
X148833809Y-111849380D01*
X148738571Y-111801761D01*
X148690952Y-111706523D01*
X148690952Y-111325571D01*
X148738571Y-111230333D01*
X148833809Y-111182714D01*
X149024285Y-111182714D01*
X149119523Y-111230333D01*
X149167142Y-111325571D01*
X149167142Y-111420809D01*
X148690952Y-111516047D01*
X149595714Y-111849380D02*
X149595714Y-111182714D01*
X149595714Y-111373190D02*
X149643333Y-111277952D01*
X149690952Y-111230333D01*
X149786190Y-111182714D01*
X149881428Y-111182714D01*
D12*
X126371000Y-112366000D03*
D13*
X128771000Y-112366000D03*
X128068056Y-114063056D03*
X126371000Y-114766000D03*
X124673944Y-114063056D03*
X123971000Y-112366000D03*
X124673944Y-110668944D03*
X126371000Y-109966000D03*
X128068056Y-110668944D03*
D12*
X126371000Y-87366000D03*
D13*
X128771000Y-87366000D03*
X128068056Y-89063056D03*
X126371000Y-89766000D03*
X124673944Y-89063056D03*
X123971000Y-87366000D03*
X124673944Y-85668944D03*
X126371000Y-84966000D03*
X128068056Y-85668944D03*
D12*
X156371000Y-87366000D03*
D13*
X158771000Y-87366000D03*
X158068056Y-89063056D03*
X156371000Y-89766000D03*
X154673944Y-89063056D03*
X153971000Y-87366000D03*
X154673944Y-85668944D03*
X156371000Y-84966000D03*
X158068056Y-85668944D03*
D14*
X156677000Y-102406000D03*
X156677000Y-99866000D03*
D15*
X156677000Y-97326000D03*
D14*
X127721000Y-96056000D03*
X127721000Y-98596000D03*
X127721000Y-101136000D03*
D15*
X127721000Y-103676000D03*
D16*
X151892000Y-96774000D03*
D17*
X151892000Y-99314000D03*
X151892000Y-98044000D03*
D16*
X146050000Y-96774000D03*
D17*
X146050000Y-99314000D03*
X146050000Y-98044000D03*
D18*
X141859000Y-92710000D03*
D19*
X131699000Y-92710000D03*
D18*
X141859000Y-96012000D03*
D19*
X131699000Y-96012000D03*
D18*
X141859000Y-99314000D03*
D19*
X131699000Y-99314000D03*
D13*
X158068056Y-110668944D03*
X156371000Y-109966000D03*
X154673944Y-110668944D03*
X153971000Y-112366000D03*
X154673944Y-114063056D03*
X156371000Y-114766000D03*
X158068056Y-114063056D03*
X158771000Y-112366000D03*
D12*
X156371000Y-112366000D03*
D20*
X143487000Y-99314000D02*
X141859000Y-99314000D01*
X146050000Y-98044000D02*
X144757000Y-98044000D01*
X144757000Y-98044000D02*
X143487000Y-99314000D01*
X130116000Y-99314000D02*
X131699000Y-99314000D01*
X127721000Y-98596000D02*
X129398000Y-98596000D01*
X129398000Y-98596000D02*
X130116000Y-99314000D01*
X141859000Y-96012000D02*
X143578000Y-96012000D01*
X144340000Y-96774000D02*
X146050000Y-96774000D01*
X143578000Y-96012000D02*
X144340000Y-96774000D01*
X150892000Y-98044000D02*
X151892000Y-98044000D01*
X148320000Y-98044000D02*
X150892000Y-98044000D01*
X147050000Y-96774000D02*
X148320000Y-98044000D01*
X146050000Y-96774000D02*
X147050000Y-96774000D01*
X141859000Y-92710000D02*
X150436000Y-92710000D01*
X151892000Y-94166000D02*
X151892000Y-96774000D01*
X150436000Y-92710000D02*
X151892000Y-94166000D01*
X138407000Y-92710000D02*
X141859000Y-92710000D01*
X137119000Y-93998000D02*
X138407000Y-92710000D01*
X137119000Y-99967000D02*
X137119000Y-93998000D01*
X127721000Y-101136000D02*
X135950000Y-101136000D01*
X135976000Y-101110000D02*
X137119000Y-99967000D01*
X153611000Y-96774000D02*
X151892000Y-96774000D01*
X154518000Y-97681000D02*
X153611000Y-96774000D01*
X154518000Y-99332000D02*
X154518000Y-97681000D01*
X156677000Y-99866000D02*
X155052000Y-99866000D01*
X155052000Y-99866000D02*
X154518000Y-99332000D01*
D21*
G36*
X160486001Y-116481000D02*
G01*
X122256000Y-116481000D01*
X122256000Y-111988285D01*
X122536000Y-111988285D01*
X122536000Y-112743715D01*
X122683377Y-113484628D01*
X122972467Y-114182554D01*
X123392161Y-114810670D01*
X123926330Y-115344839D01*
X124554446Y-115764533D01*
X125252372Y-116053623D01*
X125993285Y-116201000D01*
X126748715Y-116201000D01*
X127489628Y-116053623D01*
X128187554Y-115764533D01*
X128815670Y-115344839D01*
X129349839Y-114810670D01*
X129769533Y-114182554D01*
X130058623Y-113484628D01*
X130206000Y-112743715D01*
X130206000Y-111988285D01*
X130058623Y-111247372D01*
X129769533Y-110549446D01*
X129397060Y-109992000D01*
X131908334Y-109992000D01*
X131908334Y-112962000D01*
X138774524Y-112962000D01*
X138774524Y-115210500D01*
X142575476Y-115210500D01*
X142575476Y-112962000D01*
X150711667Y-112962000D01*
X150711667Y-111988285D01*
X152536000Y-111988285D01*
X152536000Y-112743715D01*
X152683377Y-113484628D01*
X152972467Y-114182554D01*
X153392161Y-114810670D01*
X153926330Y-115344839D01*
X154554446Y-115764533D01*
X155252372Y-116053623D01*
X155993285Y-116201000D01*
X156748715Y-116201000D01*
X157489628Y-116053623D01*
X158187554Y-115764533D01*
X158815670Y-115344839D01*
X159349839Y-114810670D01*
X159769533Y-114182554D01*
X160058623Y-113484628D01*
X160206000Y-112743715D01*
X160206000Y-111988285D01*
X160058623Y-111247372D01*
X159769533Y-110549446D01*
X159349839Y-109921330D01*
X158815670Y-109387161D01*
X158187554Y-108967467D01*
X157489628Y-108678377D01*
X156748715Y-108531000D01*
X155993285Y-108531000D01*
X155252372Y-108678377D01*
X154554446Y-108967467D01*
X153926330Y-109387161D01*
X153392161Y-109921330D01*
X152972467Y-110549446D01*
X152683377Y-111247372D01*
X152536000Y-111988285D01*
X150711667Y-111988285D01*
X150711667Y-109992000D01*
X131908334Y-109992000D01*
X129397060Y-109992000D01*
X129349839Y-109921330D01*
X128815670Y-109387161D01*
X128187554Y-108967467D01*
X127489628Y-108678377D01*
X126748715Y-108531000D01*
X125993285Y-108531000D01*
X125252372Y-108678377D01*
X124554446Y-108967467D01*
X123926330Y-109387161D01*
X123392161Y-109921330D01*
X122972467Y-110549446D01*
X122683377Y-111247372D01*
X122536000Y-111988285D01*
X122256000Y-111988285D01*
X122256000Y-98596000D01*
X126228815Y-98596000D01*
X126257487Y-98887111D01*
X126342401Y-99167034D01*
X126480294Y-99425014D01*
X126665866Y-99651134D01*
X126891986Y-99836706D01*
X126946791Y-99866000D01*
X126891986Y-99895294D01*
X126665866Y-100080866D01*
X126480294Y-100306986D01*
X126342401Y-100564966D01*
X126257487Y-100844889D01*
X126228815Y-101136000D01*
X126257487Y-101427111D01*
X126342401Y-101707034D01*
X126480294Y-101965014D01*
X126665866Y-102191134D01*
X126695687Y-102215607D01*
X126626820Y-102236498D01*
X126516506Y-102295463D01*
X126419815Y-102374815D01*
X126340463Y-102471506D01*
X126281498Y-102581820D01*
X126245188Y-102701518D01*
X126232928Y-102826000D01*
X126232928Y-104526000D01*
X126245188Y-104650482D01*
X126281498Y-104770180D01*
X126340463Y-104880494D01*
X126419815Y-104977185D01*
X126516506Y-105056537D01*
X126626820Y-105115502D01*
X126746518Y-105151812D01*
X126871000Y-105164072D01*
X128571000Y-105164072D01*
X128695482Y-105151812D01*
X128815180Y-105115502D01*
X128925494Y-105056537D01*
X129022185Y-104977185D01*
X129101537Y-104880494D01*
X129160502Y-104770180D01*
X129196812Y-104650482D01*
X129209072Y-104526000D01*
X129209072Y-102826000D01*
X129196812Y-102701518D01*
X129160502Y-102581820D01*
X129101537Y-102471506D01*
X129022185Y-102374815D01*
X128925494Y-102295463D01*
X128815180Y-102236498D01*
X128746313Y-102215607D01*
X128776134Y-102191134D01*
X128961706Y-101965014D01*
X128998595Y-101896000D01*
X135987333Y-101896000D01*
X136098986Y-101885003D01*
X136242247Y-101841546D01*
X136374276Y-101770974D01*
X136490001Y-101676001D01*
X136513804Y-101646997D01*
X137630004Y-100530798D01*
X137659001Y-100507001D01*
X137699859Y-100457215D01*
X137753974Y-100391277D01*
X137824546Y-100259247D01*
X137855183Y-100158247D01*
X137868003Y-100115986D01*
X137879000Y-100004333D01*
X137879000Y-100004324D01*
X137882676Y-99967001D01*
X137879000Y-99929678D01*
X137879000Y-94312801D01*
X138721802Y-93470000D01*
X140638099Y-93470000D01*
X140660068Y-93511101D01*
X140839392Y-93729608D01*
X141057899Y-93908932D01*
X141307192Y-94042182D01*
X141577691Y-94124236D01*
X141788508Y-94145000D01*
X141929492Y-94145000D01*
X142140309Y-94124236D01*
X142410808Y-94042182D01*
X142660101Y-93908932D01*
X142878608Y-93729608D01*
X143057932Y-93511101D01*
X143079901Y-93470000D01*
X150121199Y-93470000D01*
X151132000Y-94480802D01*
X151132001Y-95611913D01*
X151017518Y-95623188D01*
X150897820Y-95659498D01*
X150787506Y-95718463D01*
X150690815Y-95797815D01*
X150611463Y-95894506D01*
X150552498Y-96004820D01*
X150516188Y-96124518D01*
X150503928Y-96249000D01*
X150503928Y-97284000D01*
X148634802Y-97284000D01*
X147613804Y-96263003D01*
X147590001Y-96233999D01*
X147474276Y-96139026D01*
X147421686Y-96110916D01*
X147389502Y-96004820D01*
X147330537Y-95894506D01*
X147251185Y-95797815D01*
X147154494Y-95718463D01*
X147044180Y-95659498D01*
X146924482Y-95623188D01*
X146800000Y-95610928D01*
X145300000Y-95610928D01*
X145175518Y-95623188D01*
X145055820Y-95659498D01*
X144945506Y-95718463D01*
X144848815Y-95797815D01*
X144769463Y-95894506D01*
X144710498Y-96004820D01*
X144707713Y-96014000D01*
X144654802Y-96014000D01*
X144141803Y-95501002D01*
X144118001Y-95471999D01*
X144002276Y-95377026D01*
X143870247Y-95306454D01*
X143726986Y-95262997D01*
X143615333Y-95252000D01*
X143615322Y-95252000D01*
X143578000Y-95248324D01*
X143540678Y-95252000D01*
X143079901Y-95252000D01*
X143057932Y-95210899D01*
X142878608Y-94992392D01*
X142660101Y-94813068D01*
X142410808Y-94679818D01*
X142140309Y-94597764D01*
X141929492Y-94577000D01*
X141788508Y-94577000D01*
X141577691Y-94597764D01*
X141307192Y-94679818D01*
X141057899Y-94813068D01*
X140839392Y-94992392D01*
X140660068Y-95210899D01*
X140526818Y-95460192D01*
X140444764Y-95730691D01*
X140417057Y-96012000D01*
X140444764Y-96293309D01*
X140526818Y-96563808D01*
X140660068Y-96813101D01*
X140839392Y-97031608D01*
X141057899Y-97210932D01*
X141307192Y-97344182D01*
X141577691Y-97426236D01*
X141788508Y-97447000D01*
X141929492Y-97447000D01*
X142140309Y-97426236D01*
X142410808Y-97344182D01*
X142660101Y-97210932D01*
X142878608Y-97031608D01*
X143057932Y-96813101D01*
X143079901Y-96772000D01*
X143263199Y-96772000D01*
X143776201Y-97285002D01*
X143799999Y-97314001D01*
X143915724Y-97408974D01*
X144047753Y-97479546D01*
X144191014Y-97523003D01*
X144200626Y-97523950D01*
X144193201Y-97532997D01*
X143172199Y-98554000D01*
X143079901Y-98554000D01*
X143057932Y-98512899D01*
X142878608Y-98294392D01*
X142660101Y-98115068D01*
X142410808Y-97981818D01*
X142140309Y-97899764D01*
X141929492Y-97879000D01*
X141788508Y-97879000D01*
X141577691Y-97899764D01*
X141307192Y-97981818D01*
X141057899Y-98115068D01*
X140839392Y-98294392D01*
X140660068Y-98512899D01*
X140526818Y-98762192D01*
X140444764Y-99032691D01*
X140417057Y-99314000D01*
X140444764Y-99595309D01*
X140526818Y-99865808D01*
X140660068Y-100115101D01*
X140839392Y-100333608D01*
X141057899Y-100512932D01*
X141307192Y-100646182D01*
X141577691Y-100728236D01*
X141788508Y-100749000D01*
X141929492Y-100749000D01*
X142140309Y-100728236D01*
X142410808Y-100646182D01*
X142660101Y-100512932D01*
X142878608Y-100333608D01*
X143057932Y-100115101D01*
X143079901Y-100074000D01*
X143449678Y-100074000D01*
X143487000Y-100077676D01*
X143524322Y-100074000D01*
X143524333Y-100074000D01*
X143635986Y-100063003D01*
X143779247Y-100019546D01*
X143911276Y-99948974D01*
X144027001Y-99854001D01*
X144050804Y-99824997D01*
X144670050Y-99205752D01*
X144659388Y-99314000D01*
X144681785Y-99541400D01*
X144748115Y-99760060D01*
X144855829Y-99961579D01*
X145000788Y-100138212D01*
X145177421Y-100283171D01*
X145378940Y-100390885D01*
X145597600Y-100457215D01*
X145768021Y-100474000D01*
X146331979Y-100474000D01*
X146502400Y-100457215D01*
X146721060Y-100390885D01*
X146922579Y-100283171D01*
X147099212Y-100138212D01*
X147244171Y-99961579D01*
X147351885Y-99760060D01*
X147418215Y-99541400D01*
X147440612Y-99314000D01*
X147418215Y-99086600D01*
X147351885Y-98867940D01*
X147250895Y-98679000D01*
X147351885Y-98490060D01*
X147418215Y-98271400D01*
X147423091Y-98221893D01*
X147756201Y-98555003D01*
X147779999Y-98584001D01*
X147895724Y-98678974D01*
X148027753Y-98749546D01*
X148171014Y-98793003D01*
X148282667Y-98804000D01*
X148282676Y-98804000D01*
X148319999Y-98807676D01*
X148357322Y-98804000D01*
X150624292Y-98804000D01*
X150590115Y-98867940D01*
X150523785Y-99086600D01*
X150501388Y-99314000D01*
X150523785Y-99541400D01*
X150590115Y-99760060D01*
X150697829Y-99961579D01*
X150842788Y-100138212D01*
X151019421Y-100283171D01*
X151220940Y-100390885D01*
X151439600Y-100457215D01*
X151610021Y-100474000D01*
X152173979Y-100474000D01*
X152344400Y-100457215D01*
X152563060Y-100390885D01*
X152764579Y-100283171D01*
X152941212Y-100138212D01*
X153086171Y-99961579D01*
X153193885Y-99760060D01*
X153260215Y-99541400D01*
X153282612Y-99314000D01*
X153260215Y-99086600D01*
X153193885Y-98867940D01*
X153092895Y-98679000D01*
X153193885Y-98490060D01*
X153260215Y-98271400D01*
X153282612Y-98044000D01*
X153260215Y-97816600D01*
X153196907Y-97607902D01*
X153231502Y-97543180D01*
X153234287Y-97534000D01*
X153296199Y-97534000D01*
X153758001Y-97995803D01*
X153758000Y-99294677D01*
X153754324Y-99332000D01*
X153758000Y-99369322D01*
X153758000Y-99369332D01*
X153768997Y-99480985D01*
X153797482Y-99574889D01*
X153812454Y-99624246D01*
X153883026Y-99756276D01*
X153922871Y-99804826D01*
X153977999Y-99872001D01*
X154007002Y-99895803D01*
X154488200Y-100377002D01*
X154511999Y-100406001D01*
X154540997Y-100429799D01*
X154627723Y-100500974D01*
X154747443Y-100564966D01*
X154759753Y-100571546D01*
X154903014Y-100615003D01*
X155014667Y-100626000D01*
X155014676Y-100626000D01*
X155051999Y-100629676D01*
X155089322Y-100626000D01*
X155399405Y-100626000D01*
X155436294Y-100695014D01*
X155621866Y-100921134D01*
X155847986Y-101106706D01*
X155902791Y-101136000D01*
X155847986Y-101165294D01*
X155621866Y-101350866D01*
X155436294Y-101576986D01*
X155298401Y-101834966D01*
X155213487Y-102114889D01*
X155184815Y-102406000D01*
X155213487Y-102697111D01*
X155298401Y-102977034D01*
X155436294Y-103235014D01*
X155621866Y-103461134D01*
X155847986Y-103646706D01*
X156105966Y-103784599D01*
X156385889Y-103869513D01*
X156604050Y-103891000D01*
X156749950Y-103891000D01*
X156968111Y-103869513D01*
X157248034Y-103784599D01*
X157506014Y-103646706D01*
X157732134Y-103461134D01*
X157917706Y-103235014D01*
X158055599Y-102977034D01*
X158140513Y-102697111D01*
X158169185Y-102406000D01*
X158140513Y-102114889D01*
X158055599Y-101834966D01*
X157917706Y-101576986D01*
X157732134Y-101350866D01*
X157506014Y-101165294D01*
X157451209Y-101136000D01*
X157506014Y-101106706D01*
X157732134Y-100921134D01*
X157917706Y-100695014D01*
X158055599Y-100437034D01*
X158140513Y-100157111D01*
X158169185Y-99866000D01*
X158140513Y-99574889D01*
X158055599Y-99294966D01*
X157917706Y-99036986D01*
X157732134Y-98810866D01*
X157702313Y-98786393D01*
X157771180Y-98765502D01*
X157881494Y-98706537D01*
X157978185Y-98627185D01*
X158057537Y-98530494D01*
X158116502Y-98420180D01*
X158152812Y-98300482D01*
X158165072Y-98176000D01*
X158162000Y-97611750D01*
X158003250Y-97453000D01*
X156804000Y-97453000D01*
X156804000Y-97473000D01*
X156550000Y-97473000D01*
X156550000Y-97453000D01*
X155350750Y-97453000D01*
X155267427Y-97536323D01*
X155267003Y-97532014D01*
X155223546Y-97388753D01*
X155152974Y-97256724D01*
X155058001Y-97140999D01*
X155029003Y-97117201D01*
X154387802Y-96476000D01*
X155188928Y-96476000D01*
X155192000Y-97040250D01*
X155350750Y-97199000D01*
X156550000Y-97199000D01*
X156550000Y-95999750D01*
X156804000Y-95999750D01*
X156804000Y-97199000D01*
X158003250Y-97199000D01*
X158162000Y-97040250D01*
X158165072Y-96476000D01*
X158152812Y-96351518D01*
X158116502Y-96231820D01*
X158057537Y-96121506D01*
X157978185Y-96024815D01*
X157881494Y-95945463D01*
X157771180Y-95886498D01*
X157651482Y-95850188D01*
X157527000Y-95837928D01*
X156962750Y-95841000D01*
X156804000Y-95999750D01*
X156550000Y-95999750D01*
X156391250Y-95841000D01*
X155827000Y-95837928D01*
X155702518Y-95850188D01*
X155582820Y-95886498D01*
X155472506Y-95945463D01*
X155375815Y-96024815D01*
X155296463Y-96121506D01*
X155237498Y-96231820D01*
X155201188Y-96351518D01*
X155188928Y-96476000D01*
X154387802Y-96476000D01*
X154174803Y-96263002D01*
X154151001Y-96233999D01*
X154035276Y-96139026D01*
X153903247Y-96068454D01*
X153759986Y-96024997D01*
X153648333Y-96014000D01*
X153648322Y-96014000D01*
X153611000Y-96010324D01*
X153573678Y-96014000D01*
X153234287Y-96014000D01*
X153231502Y-96004820D01*
X153172537Y-95894506D01*
X153093185Y-95797815D01*
X152996494Y-95718463D01*
X152886180Y-95659498D01*
X152766482Y-95623188D01*
X152652000Y-95611913D01*
X152652000Y-94203323D01*
X152655676Y-94166000D01*
X152652000Y-94128677D01*
X152652000Y-94128667D01*
X152641003Y-94017014D01*
X152597546Y-93873753D01*
X152526975Y-93741725D01*
X152526974Y-93741723D01*
X152455799Y-93654997D01*
X152432001Y-93625999D01*
X152403004Y-93602202D01*
X150999804Y-92199003D01*
X150976001Y-92169999D01*
X150860276Y-92075026D01*
X150728247Y-92004454D01*
X150584986Y-91960997D01*
X150473333Y-91950000D01*
X150473322Y-91950000D01*
X150436000Y-91946324D01*
X150398678Y-91950000D01*
X143079901Y-91950000D01*
X143057932Y-91908899D01*
X142878608Y-91690392D01*
X142660101Y-91511068D01*
X142410808Y-91377818D01*
X142140309Y-91295764D01*
X141929492Y-91275000D01*
X141788508Y-91275000D01*
X141577691Y-91295764D01*
X141307192Y-91377818D01*
X141057899Y-91511068D01*
X140839392Y-91690392D01*
X140660068Y-91908899D01*
X140638099Y-91950000D01*
X138444322Y-91950000D01*
X138406999Y-91946324D01*
X138369676Y-91950000D01*
X138369667Y-91950000D01*
X138258014Y-91960997D01*
X138114753Y-92004454D01*
X137982723Y-92075026D01*
X137899083Y-92143668D01*
X137866999Y-92169999D01*
X137843201Y-92198997D01*
X136607998Y-93434201D01*
X136579000Y-93457999D01*
X136555202Y-93486997D01*
X136555201Y-93486998D01*
X136484026Y-93573724D01*
X136413454Y-93705754D01*
X136369998Y-93849015D01*
X136355324Y-93998000D01*
X136359001Y-94035332D01*
X136359000Y-99652198D01*
X135635199Y-100376000D01*
X132666396Y-100376000D01*
X132813637Y-100228759D01*
X132970680Y-99993727D01*
X133078853Y-99732574D01*
X133134000Y-99455335D01*
X133134000Y-99172665D01*
X133078853Y-98895426D01*
X132970680Y-98634273D01*
X132813637Y-98399241D01*
X132613759Y-98199363D01*
X132378727Y-98042320D01*
X132117574Y-97934147D01*
X131840335Y-97879000D01*
X131557665Y-97879000D01*
X131280426Y-97934147D01*
X131019273Y-98042320D01*
X130784241Y-98199363D01*
X130584363Y-98399241D01*
X130480957Y-98554000D01*
X130430802Y-98554000D01*
X129961803Y-98085002D01*
X129938001Y-98055999D01*
X129822276Y-97961026D01*
X129690247Y-97890454D01*
X129546986Y-97846997D01*
X129435333Y-97836000D01*
X129435322Y-97836000D01*
X129398000Y-97832324D01*
X129360678Y-97836000D01*
X128998595Y-97836000D01*
X128961706Y-97766986D01*
X128776134Y-97540866D01*
X128550014Y-97355294D01*
X128485477Y-97320799D01*
X128602355Y-97251178D01*
X128818588Y-97056269D01*
X128857051Y-97004702D01*
X130885903Y-97004702D01*
X130957486Y-97248671D01*
X131212996Y-97369571D01*
X131487184Y-97438300D01*
X131769512Y-97452217D01*
X132049130Y-97410787D01*
X132315292Y-97315603D01*
X132440514Y-97248671D01*
X132512097Y-97004702D01*
X131699000Y-96191605D01*
X130885903Y-97004702D01*
X128857051Y-97004702D01*
X128992641Y-96822920D01*
X129117825Y-96560099D01*
X129162476Y-96412890D01*
X129041155Y-96183000D01*
X127848000Y-96183000D01*
X127848000Y-96203000D01*
X127594000Y-96203000D01*
X127594000Y-96183000D01*
X126400845Y-96183000D01*
X126279524Y-96412890D01*
X126324175Y-96560099D01*
X126449359Y-96822920D01*
X126623412Y-97056269D01*
X126839645Y-97251178D01*
X126956523Y-97320799D01*
X126891986Y-97355294D01*
X126665866Y-97540866D01*
X126480294Y-97766986D01*
X126342401Y-98024966D01*
X126257487Y-98304889D01*
X126228815Y-98596000D01*
X122256000Y-98596000D01*
X122256000Y-96082512D01*
X130258783Y-96082512D01*
X130300213Y-96362130D01*
X130395397Y-96628292D01*
X130462329Y-96753514D01*
X130706298Y-96825097D01*
X131519395Y-96012000D01*
X131878605Y-96012000D01*
X132691702Y-96825097D01*
X132935671Y-96753514D01*
X133056571Y-96498004D01*
X133125300Y-96223816D01*
X133139217Y-95941488D01*
X133097787Y-95661870D01*
X133002603Y-95395708D01*
X132935671Y-95270486D01*
X132691702Y-95198903D01*
X131878605Y-96012000D01*
X131519395Y-96012000D01*
X130706298Y-95198903D01*
X130462329Y-95270486D01*
X130341429Y-95525996D01*
X130272700Y-95800184D01*
X130258783Y-96082512D01*
X122256000Y-96082512D01*
X122256000Y-95699110D01*
X126279524Y-95699110D01*
X126400845Y-95929000D01*
X127594000Y-95929000D01*
X127594000Y-94735186D01*
X127848000Y-94735186D01*
X127848000Y-95929000D01*
X129041155Y-95929000D01*
X129162476Y-95699110D01*
X129117825Y-95551901D01*
X128992641Y-95289080D01*
X128818588Y-95055731D01*
X128778170Y-95019298D01*
X130885903Y-95019298D01*
X131699000Y-95832395D01*
X132512097Y-95019298D01*
X132440514Y-94775329D01*
X132185004Y-94654429D01*
X131910816Y-94585700D01*
X131628488Y-94571783D01*
X131348870Y-94613213D01*
X131082708Y-94708397D01*
X130957486Y-94775329D01*
X130885903Y-95019298D01*
X128778170Y-95019298D01*
X128602355Y-94860822D01*
X128352252Y-94711843D01*
X128077891Y-94614519D01*
X127848000Y-94735186D01*
X127594000Y-94735186D01*
X127364109Y-94614519D01*
X127089748Y-94711843D01*
X126839645Y-94860822D01*
X126623412Y-95055731D01*
X126449359Y-95289080D01*
X126324175Y-95551901D01*
X126279524Y-95699110D01*
X122256000Y-95699110D01*
X122256000Y-93702702D01*
X130885903Y-93702702D01*
X130957486Y-93946671D01*
X131212996Y-94067571D01*
X131487184Y-94136300D01*
X131769512Y-94150217D01*
X132049130Y-94108787D01*
X132315292Y-94013603D01*
X132440514Y-93946671D01*
X132512097Y-93702702D01*
X131699000Y-92889605D01*
X130885903Y-93702702D01*
X122256000Y-93702702D01*
X122256000Y-92780512D01*
X130258783Y-92780512D01*
X130300213Y-93060130D01*
X130395397Y-93326292D01*
X130462329Y-93451514D01*
X130706298Y-93523097D01*
X131519395Y-92710000D01*
X131878605Y-92710000D01*
X132691702Y-93523097D01*
X132935671Y-93451514D01*
X133056571Y-93196004D01*
X133125300Y-92921816D01*
X133139217Y-92639488D01*
X133097787Y-92359870D01*
X133002603Y-92093708D01*
X132935671Y-91968486D01*
X132691702Y-91896903D01*
X131878605Y-92710000D01*
X131519395Y-92710000D01*
X130706298Y-91896903D01*
X130462329Y-91968486D01*
X130341429Y-92223996D01*
X130272700Y-92498184D01*
X130258783Y-92780512D01*
X122256000Y-92780512D01*
X122256000Y-91717298D01*
X130885903Y-91717298D01*
X131699000Y-92530395D01*
X132512097Y-91717298D01*
X132440514Y-91473329D01*
X132185004Y-91352429D01*
X131910816Y-91283700D01*
X131628488Y-91269783D01*
X131348870Y-91311213D01*
X131082708Y-91406397D01*
X130957486Y-91473329D01*
X130885903Y-91717298D01*
X122256000Y-91717298D01*
X122256000Y-86988285D01*
X122536000Y-86988285D01*
X122536000Y-87743715D01*
X122683377Y-88484628D01*
X122972467Y-89182554D01*
X123392161Y-89810670D01*
X123926330Y-90344839D01*
X124554446Y-90764533D01*
X125252372Y-91053623D01*
X125993285Y-91201000D01*
X126748715Y-91201000D01*
X127489628Y-91053623D01*
X128187554Y-90764533D01*
X128815670Y-90344839D01*
X129349839Y-89810670D01*
X129769533Y-89182554D01*
X130058623Y-88484628D01*
X130206000Y-87743715D01*
X130206000Y-86988285D01*
X152536000Y-86988285D01*
X152536000Y-87743715D01*
X152683377Y-88484628D01*
X152972467Y-89182554D01*
X153392161Y-89810670D01*
X153926330Y-90344839D01*
X154554446Y-90764533D01*
X155252372Y-91053623D01*
X155993285Y-91201000D01*
X156748715Y-91201000D01*
X157489628Y-91053623D01*
X158187554Y-90764533D01*
X158815670Y-90344839D01*
X159349839Y-89810670D01*
X159769533Y-89182554D01*
X160058623Y-88484628D01*
X160206000Y-87743715D01*
X160206000Y-86988285D01*
X160058623Y-86247372D01*
X159769533Y-85549446D01*
X159349839Y-84921330D01*
X158815670Y-84387161D01*
X158187554Y-83967467D01*
X157489628Y-83678377D01*
X156748715Y-83531000D01*
X155993285Y-83531000D01*
X155252372Y-83678377D01*
X154554446Y-83967467D01*
X153926330Y-84387161D01*
X153392161Y-84921330D01*
X152972467Y-85549446D01*
X152683377Y-86247372D01*
X152536000Y-86988285D01*
X130206000Y-86988285D01*
X130058623Y-86247372D01*
X129769533Y-85549446D01*
X129349839Y-84921330D01*
X128815670Y-84387161D01*
X128187554Y-83967467D01*
X127549074Y-83703000D01*
X140098810Y-83703000D01*
X140098810Y-86673000D01*
X142521191Y-86673000D01*
X142521191Y-83703000D01*
X140098810Y-83703000D01*
X127549074Y-83703000D01*
X127489628Y-83678377D01*
X126748715Y-83531000D01*
X125993285Y-83531000D01*
X125252372Y-83678377D01*
X124554446Y-83967467D01*
X123926330Y-84387161D01*
X123392161Y-84921330D01*
X122972467Y-85549446D01*
X122683377Y-86247372D01*
X122536000Y-86988285D01*
X122256000Y-86988285D01*
X122256000Y-83251000D01*
X160486000Y-83251000D01*
X160486001Y-116481000D01*
X160486001Y-116481000D01*
G37*
X160486001Y-116481000D02*
X122256000Y-116481000D01*
X122256000Y-111988285D01*
X122536000Y-111988285D01*
X122536000Y-112743715D01*
X122683377Y-113484628D01*
X122972467Y-114182554D01*
X123392161Y-114810670D01*
X123926330Y-115344839D01*
X124554446Y-115764533D01*
X125252372Y-116053623D01*
X125993285Y-116201000D01*
X126748715Y-116201000D01*
X127489628Y-116053623D01*
X128187554Y-115764533D01*
X128815670Y-115344839D01*
X129349839Y-114810670D01*
X129769533Y-114182554D01*
X130058623Y-113484628D01*
X130206000Y-112743715D01*
X130206000Y-111988285D01*
X130058623Y-111247372D01*
X129769533Y-110549446D01*
X129397060Y-109992000D01*
X131908334Y-109992000D01*
X131908334Y-112962000D01*
X138774524Y-112962000D01*
X138774524Y-115210500D01*
X142575476Y-115210500D01*
X142575476Y-112962000D01*
X150711667Y-112962000D01*
X150711667Y-111988285D01*
X152536000Y-111988285D01*
X152536000Y-112743715D01*
X152683377Y-113484628D01*
X152972467Y-114182554D01*
X153392161Y-114810670D01*
X153926330Y-115344839D01*
X154554446Y-115764533D01*
X155252372Y-116053623D01*
X155993285Y-116201000D01*
X156748715Y-116201000D01*
X157489628Y-116053623D01*
X158187554Y-115764533D01*
X158815670Y-115344839D01*
X159349839Y-114810670D01*
X159769533Y-114182554D01*
X160058623Y-113484628D01*
X160206000Y-112743715D01*
X160206000Y-111988285D01*
X160058623Y-111247372D01*
X159769533Y-110549446D01*
X159349839Y-109921330D01*
X158815670Y-109387161D01*
X158187554Y-108967467D01*
X157489628Y-108678377D01*
X156748715Y-108531000D01*
X155993285Y-108531000D01*
X155252372Y-108678377D01*
X154554446Y-108967467D01*
X153926330Y-109387161D01*
X153392161Y-109921330D01*
X152972467Y-110549446D01*
X152683377Y-111247372D01*
X152536000Y-111988285D01*
X150711667Y-111988285D01*
X150711667Y-109992000D01*
X131908334Y-109992000D01*
X129397060Y-109992000D01*
X129349839Y-109921330D01*
X128815670Y-109387161D01*
X128187554Y-108967467D01*
X127489628Y-108678377D01*
X126748715Y-108531000D01*
X125993285Y-108531000D01*
X125252372Y-108678377D01*
X124554446Y-108967467D01*
X123926330Y-109387161D01*
X123392161Y-109921330D01*
X122972467Y-110549446D01*
X122683377Y-111247372D01*
X122536000Y-111988285D01*
X122256000Y-111988285D01*
X122256000Y-98596000D01*
X126228815Y-98596000D01*
X126257487Y-98887111D01*
X126342401Y-99167034D01*
X126480294Y-99425014D01*
X126665866Y-99651134D01*
X126891986Y-99836706D01*
X126946791Y-99866000D01*
X126891986Y-99895294D01*
X126665866Y-100080866D01*
X126480294Y-100306986D01*
X126342401Y-100564966D01*
X126257487Y-100844889D01*
X126228815Y-101136000D01*
X126257487Y-101427111D01*
X126342401Y-101707034D01*
X126480294Y-101965014D01*
X126665866Y-102191134D01*
X126695687Y-102215607D01*
X126626820Y-102236498D01*
X126516506Y-102295463D01*
X126419815Y-102374815D01*
X126340463Y-102471506D01*
X126281498Y-102581820D01*
X126245188Y-102701518D01*
X126232928Y-102826000D01*
X126232928Y-104526000D01*
X126245188Y-104650482D01*
X126281498Y-104770180D01*
X126340463Y-104880494D01*
X126419815Y-104977185D01*
X126516506Y-105056537D01*
X126626820Y-105115502D01*
X126746518Y-105151812D01*
X126871000Y-105164072D01*
X128571000Y-105164072D01*
X128695482Y-105151812D01*
X128815180Y-105115502D01*
X128925494Y-105056537D01*
X129022185Y-104977185D01*
X129101537Y-104880494D01*
X129160502Y-104770180D01*
X129196812Y-104650482D01*
X129209072Y-104526000D01*
X129209072Y-102826000D01*
X129196812Y-102701518D01*
X129160502Y-102581820D01*
X129101537Y-102471506D01*
X129022185Y-102374815D01*
X128925494Y-102295463D01*
X128815180Y-102236498D01*
X128746313Y-102215607D01*
X128776134Y-102191134D01*
X128961706Y-101965014D01*
X128998595Y-101896000D01*
X135987333Y-101896000D01*
X136098986Y-101885003D01*
X136242247Y-101841546D01*
X136374276Y-101770974D01*
X136490001Y-101676001D01*
X136513804Y-101646997D01*
X137630004Y-100530798D01*
X137659001Y-100507001D01*
X137699859Y-100457215D01*
X137753974Y-100391277D01*
X137824546Y-100259247D01*
X137855183Y-100158247D01*
X137868003Y-100115986D01*
X137879000Y-100004333D01*
X137879000Y-100004324D01*
X137882676Y-99967001D01*
X137879000Y-99929678D01*
X137879000Y-94312801D01*
X138721802Y-93470000D01*
X140638099Y-93470000D01*
X140660068Y-93511101D01*
X140839392Y-93729608D01*
X141057899Y-93908932D01*
X141307192Y-94042182D01*
X141577691Y-94124236D01*
X141788508Y-94145000D01*
X141929492Y-94145000D01*
X142140309Y-94124236D01*
X142410808Y-94042182D01*
X142660101Y-93908932D01*
X142878608Y-93729608D01*
X143057932Y-93511101D01*
X143079901Y-93470000D01*
X150121199Y-93470000D01*
X151132000Y-94480802D01*
X151132001Y-95611913D01*
X151017518Y-95623188D01*
X150897820Y-95659498D01*
X150787506Y-95718463D01*
X150690815Y-95797815D01*
X150611463Y-95894506D01*
X150552498Y-96004820D01*
X150516188Y-96124518D01*
X150503928Y-96249000D01*
X150503928Y-97284000D01*
X148634802Y-97284000D01*
X147613804Y-96263003D01*
X147590001Y-96233999D01*
X147474276Y-96139026D01*
X147421686Y-96110916D01*
X147389502Y-96004820D01*
X147330537Y-95894506D01*
X147251185Y-95797815D01*
X147154494Y-95718463D01*
X147044180Y-95659498D01*
X146924482Y-95623188D01*
X146800000Y-95610928D01*
X145300000Y-95610928D01*
X145175518Y-95623188D01*
X145055820Y-95659498D01*
X144945506Y-95718463D01*
X144848815Y-95797815D01*
X144769463Y-95894506D01*
X144710498Y-96004820D01*
X144707713Y-96014000D01*
X144654802Y-96014000D01*
X144141803Y-95501002D01*
X144118001Y-95471999D01*
X144002276Y-95377026D01*
X143870247Y-95306454D01*
X143726986Y-95262997D01*
X143615333Y-95252000D01*
X143615322Y-95252000D01*
X143578000Y-95248324D01*
X143540678Y-95252000D01*
X143079901Y-95252000D01*
X143057932Y-95210899D01*
X142878608Y-94992392D01*
X142660101Y-94813068D01*
X142410808Y-94679818D01*
X142140309Y-94597764D01*
X141929492Y-94577000D01*
X141788508Y-94577000D01*
X141577691Y-94597764D01*
X141307192Y-94679818D01*
X141057899Y-94813068D01*
X140839392Y-94992392D01*
X140660068Y-95210899D01*
X140526818Y-95460192D01*
X140444764Y-95730691D01*
X140417057Y-96012000D01*
X140444764Y-96293309D01*
X140526818Y-96563808D01*
X140660068Y-96813101D01*
X140839392Y-97031608D01*
X141057899Y-97210932D01*
X141307192Y-97344182D01*
X141577691Y-97426236D01*
X141788508Y-97447000D01*
X141929492Y-97447000D01*
X142140309Y-97426236D01*
X142410808Y-97344182D01*
X142660101Y-97210932D01*
X142878608Y-97031608D01*
X143057932Y-96813101D01*
X143079901Y-96772000D01*
X143263199Y-96772000D01*
X143776201Y-97285002D01*
X143799999Y-97314001D01*
X143915724Y-97408974D01*
X144047753Y-97479546D01*
X144191014Y-97523003D01*
X144200626Y-97523950D01*
X144193201Y-97532997D01*
X143172199Y-98554000D01*
X143079901Y-98554000D01*
X143057932Y-98512899D01*
X142878608Y-98294392D01*
X142660101Y-98115068D01*
X142410808Y-97981818D01*
X142140309Y-97899764D01*
X141929492Y-97879000D01*
X141788508Y-97879000D01*
X141577691Y-97899764D01*
X141307192Y-97981818D01*
X141057899Y-98115068D01*
X140839392Y-98294392D01*
X140660068Y-98512899D01*
X140526818Y-98762192D01*
X140444764Y-99032691D01*
X140417057Y-99314000D01*
X140444764Y-99595309D01*
X140526818Y-99865808D01*
X140660068Y-100115101D01*
X140839392Y-100333608D01*
X141057899Y-100512932D01*
X141307192Y-100646182D01*
X141577691Y-100728236D01*
X141788508Y-100749000D01*
X141929492Y-100749000D01*
X142140309Y-100728236D01*
X142410808Y-100646182D01*
X142660101Y-100512932D01*
X142878608Y-100333608D01*
X143057932Y-100115101D01*
X143079901Y-100074000D01*
X143449678Y-100074000D01*
X143487000Y-100077676D01*
X143524322Y-100074000D01*
X143524333Y-100074000D01*
X143635986Y-100063003D01*
X143779247Y-100019546D01*
X143911276Y-99948974D01*
X144027001Y-99854001D01*
X144050804Y-99824997D01*
X144670050Y-99205752D01*
X144659388Y-99314000D01*
X144681785Y-99541400D01*
X144748115Y-99760060D01*
X144855829Y-99961579D01*
X145000788Y-100138212D01*
X145177421Y-100283171D01*
X145378940Y-100390885D01*
X145597600Y-100457215D01*
X145768021Y-100474000D01*
X146331979Y-100474000D01*
X146502400Y-100457215D01*
X146721060Y-100390885D01*
X146922579Y-100283171D01*
X147099212Y-100138212D01*
X147244171Y-99961579D01*
X147351885Y-99760060D01*
X147418215Y-99541400D01*
X147440612Y-99314000D01*
X147418215Y-99086600D01*
X147351885Y-98867940D01*
X147250895Y-98679000D01*
X147351885Y-98490060D01*
X147418215Y-98271400D01*
X147423091Y-98221893D01*
X147756201Y-98555003D01*
X147779999Y-98584001D01*
X147895724Y-98678974D01*
X148027753Y-98749546D01*
X148171014Y-98793003D01*
X148282667Y-98804000D01*
X148282676Y-98804000D01*
X148319999Y-98807676D01*
X148357322Y-98804000D01*
X150624292Y-98804000D01*
X150590115Y-98867940D01*
X150523785Y-99086600D01*
X150501388Y-99314000D01*
X150523785Y-99541400D01*
X150590115Y-99760060D01*
X150697829Y-99961579D01*
X150842788Y-100138212D01*
X151019421Y-100283171D01*
X151220940Y-100390885D01*
X151439600Y-100457215D01*
X151610021Y-100474000D01*
X152173979Y-100474000D01*
X152344400Y-100457215D01*
X152563060Y-100390885D01*
X152764579Y-100283171D01*
X152941212Y-100138212D01*
X153086171Y-99961579D01*
X153193885Y-99760060D01*
X153260215Y-99541400D01*
X153282612Y-99314000D01*
X153260215Y-99086600D01*
X153193885Y-98867940D01*
X153092895Y-98679000D01*
X153193885Y-98490060D01*
X153260215Y-98271400D01*
X153282612Y-98044000D01*
X153260215Y-97816600D01*
X153196907Y-97607902D01*
X153231502Y-97543180D01*
X153234287Y-97534000D01*
X153296199Y-97534000D01*
X153758001Y-97995803D01*
X153758000Y-99294677D01*
X153754324Y-99332000D01*
X153758000Y-99369322D01*
X153758000Y-99369332D01*
X153768997Y-99480985D01*
X153797482Y-99574889D01*
X153812454Y-99624246D01*
X153883026Y-99756276D01*
X153922871Y-99804826D01*
X153977999Y-99872001D01*
X154007002Y-99895803D01*
X154488200Y-100377002D01*
X154511999Y-100406001D01*
X154540997Y-100429799D01*
X154627723Y-100500974D01*
X154747443Y-100564966D01*
X154759753Y-100571546D01*
X154903014Y-100615003D01*
X155014667Y-100626000D01*
X155014676Y-100626000D01*
X155051999Y-100629676D01*
X155089322Y-100626000D01*
X155399405Y-100626000D01*
X155436294Y-100695014D01*
X155621866Y-100921134D01*
X155847986Y-101106706D01*
X155902791Y-101136000D01*
X155847986Y-101165294D01*
X155621866Y-101350866D01*
X155436294Y-101576986D01*
X155298401Y-101834966D01*
X155213487Y-102114889D01*
X155184815Y-102406000D01*
X155213487Y-102697111D01*
X155298401Y-102977034D01*
X155436294Y-103235014D01*
X155621866Y-103461134D01*
X155847986Y-103646706D01*
X156105966Y-103784599D01*
X156385889Y-103869513D01*
X156604050Y-103891000D01*
X156749950Y-103891000D01*
X156968111Y-103869513D01*
X157248034Y-103784599D01*
X157506014Y-103646706D01*
X157732134Y-103461134D01*
X157917706Y-103235014D01*
X158055599Y-102977034D01*
X158140513Y-102697111D01*
X158169185Y-102406000D01*
X158140513Y-102114889D01*
X158055599Y-101834966D01*
X157917706Y-101576986D01*
X157732134Y-101350866D01*
X157506014Y-101165294D01*
X157451209Y-101136000D01*
X157506014Y-101106706D01*
X157732134Y-100921134D01*
X157917706Y-100695014D01*
X158055599Y-100437034D01*
X158140513Y-100157111D01*
X158169185Y-99866000D01*
X158140513Y-99574889D01*
X158055599Y-99294966D01*
X157917706Y-99036986D01*
X157732134Y-98810866D01*
X157702313Y-98786393D01*
X157771180Y-98765502D01*
X157881494Y-98706537D01*
X157978185Y-98627185D01*
X158057537Y-98530494D01*
X158116502Y-98420180D01*
X158152812Y-98300482D01*
X158165072Y-98176000D01*
X158162000Y-97611750D01*
X158003250Y-97453000D01*
X156804000Y-97453000D01*
X156804000Y-97473000D01*
X156550000Y-97473000D01*
X156550000Y-97453000D01*
X155350750Y-97453000D01*
X155267427Y-97536323D01*
X155267003Y-97532014D01*
X155223546Y-97388753D01*
X155152974Y-97256724D01*
X155058001Y-97140999D01*
X155029003Y-97117201D01*
X154387802Y-96476000D01*
X155188928Y-96476000D01*
X155192000Y-97040250D01*
X155350750Y-97199000D01*
X156550000Y-97199000D01*
X156550000Y-95999750D01*
X156804000Y-95999750D01*
X156804000Y-97199000D01*
X158003250Y-97199000D01*
X158162000Y-97040250D01*
X158165072Y-96476000D01*
X158152812Y-96351518D01*
X158116502Y-96231820D01*
X158057537Y-96121506D01*
X157978185Y-96024815D01*
X157881494Y-95945463D01*
X157771180Y-95886498D01*
X157651482Y-95850188D01*
X157527000Y-95837928D01*
X156962750Y-95841000D01*
X156804000Y-95999750D01*
X156550000Y-95999750D01*
X156391250Y-95841000D01*
X155827000Y-95837928D01*
X155702518Y-95850188D01*
X155582820Y-95886498D01*
X155472506Y-95945463D01*
X155375815Y-96024815D01*
X155296463Y-96121506D01*
X155237498Y-96231820D01*
X155201188Y-96351518D01*
X155188928Y-96476000D01*
X154387802Y-96476000D01*
X154174803Y-96263002D01*
X154151001Y-96233999D01*
X154035276Y-96139026D01*
X153903247Y-96068454D01*
X153759986Y-96024997D01*
X153648333Y-96014000D01*
X153648322Y-96014000D01*
X153611000Y-96010324D01*
X153573678Y-96014000D01*
X153234287Y-96014000D01*
X153231502Y-96004820D01*
X153172537Y-95894506D01*
X153093185Y-95797815D01*
X152996494Y-95718463D01*
X152886180Y-95659498D01*
X152766482Y-95623188D01*
X152652000Y-95611913D01*
X152652000Y-94203323D01*
X152655676Y-94166000D01*
X152652000Y-94128677D01*
X152652000Y-94128667D01*
X152641003Y-94017014D01*
X152597546Y-93873753D01*
X152526975Y-93741725D01*
X152526974Y-93741723D01*
X152455799Y-93654997D01*
X152432001Y-93625999D01*
X152403004Y-93602202D01*
X150999804Y-92199003D01*
X150976001Y-92169999D01*
X150860276Y-92075026D01*
X150728247Y-92004454D01*
X150584986Y-91960997D01*
X150473333Y-91950000D01*
X150473322Y-91950000D01*
X150436000Y-91946324D01*
X150398678Y-91950000D01*
X143079901Y-91950000D01*
X143057932Y-91908899D01*
X142878608Y-91690392D01*
X142660101Y-91511068D01*
X142410808Y-91377818D01*
X142140309Y-91295764D01*
X141929492Y-91275000D01*
X141788508Y-91275000D01*
X141577691Y-91295764D01*
X141307192Y-91377818D01*
X141057899Y-91511068D01*
X140839392Y-91690392D01*
X140660068Y-91908899D01*
X140638099Y-91950000D01*
X138444322Y-91950000D01*
X138406999Y-91946324D01*
X138369676Y-91950000D01*
X138369667Y-91950000D01*
X138258014Y-91960997D01*
X138114753Y-92004454D01*
X137982723Y-92075026D01*
X137899083Y-92143668D01*
X137866999Y-92169999D01*
X137843201Y-92198997D01*
X136607998Y-93434201D01*
X136579000Y-93457999D01*
X136555202Y-93486997D01*
X136555201Y-93486998D01*
X136484026Y-93573724D01*
X136413454Y-93705754D01*
X136369998Y-93849015D01*
X136355324Y-93998000D01*
X136359001Y-94035332D01*
X136359000Y-99652198D01*
X135635199Y-100376000D01*
X132666396Y-100376000D01*
X132813637Y-100228759D01*
X132970680Y-99993727D01*
X133078853Y-99732574D01*
X133134000Y-99455335D01*
X133134000Y-99172665D01*
X133078853Y-98895426D01*
X132970680Y-98634273D01*
X132813637Y-98399241D01*
X132613759Y-98199363D01*
X132378727Y-98042320D01*
X132117574Y-97934147D01*
X131840335Y-97879000D01*
X131557665Y-97879000D01*
X131280426Y-97934147D01*
X131019273Y-98042320D01*
X130784241Y-98199363D01*
X130584363Y-98399241D01*
X130480957Y-98554000D01*
X130430802Y-98554000D01*
X129961803Y-98085002D01*
X129938001Y-98055999D01*
X129822276Y-97961026D01*
X129690247Y-97890454D01*
X129546986Y-97846997D01*
X129435333Y-97836000D01*
X129435322Y-97836000D01*
X129398000Y-97832324D01*
X129360678Y-97836000D01*
X128998595Y-97836000D01*
X128961706Y-97766986D01*
X128776134Y-97540866D01*
X128550014Y-97355294D01*
X128485477Y-97320799D01*
X128602355Y-97251178D01*
X128818588Y-97056269D01*
X128857051Y-97004702D01*
X130885903Y-97004702D01*
X130957486Y-97248671D01*
X131212996Y-97369571D01*
X131487184Y-97438300D01*
X131769512Y-97452217D01*
X132049130Y-97410787D01*
X132315292Y-97315603D01*
X132440514Y-97248671D01*
X132512097Y-97004702D01*
X131699000Y-96191605D01*
X130885903Y-97004702D01*
X128857051Y-97004702D01*
X128992641Y-96822920D01*
X129117825Y-96560099D01*
X129162476Y-96412890D01*
X129041155Y-96183000D01*
X127848000Y-96183000D01*
X127848000Y-96203000D01*
X127594000Y-96203000D01*
X127594000Y-96183000D01*
X126400845Y-96183000D01*
X126279524Y-96412890D01*
X126324175Y-96560099D01*
X126449359Y-96822920D01*
X126623412Y-97056269D01*
X126839645Y-97251178D01*
X126956523Y-97320799D01*
X126891986Y-97355294D01*
X126665866Y-97540866D01*
X126480294Y-97766986D01*
X126342401Y-98024966D01*
X126257487Y-98304889D01*
X126228815Y-98596000D01*
X122256000Y-98596000D01*
X122256000Y-96082512D01*
X130258783Y-96082512D01*
X130300213Y-96362130D01*
X130395397Y-96628292D01*
X130462329Y-96753514D01*
X130706298Y-96825097D01*
X131519395Y-96012000D01*
X131878605Y-96012000D01*
X132691702Y-96825097D01*
X132935671Y-96753514D01*
X133056571Y-96498004D01*
X133125300Y-96223816D01*
X133139217Y-95941488D01*
X133097787Y-95661870D01*
X133002603Y-95395708D01*
X132935671Y-95270486D01*
X132691702Y-95198903D01*
X131878605Y-96012000D01*
X131519395Y-96012000D01*
X130706298Y-95198903D01*
X130462329Y-95270486D01*
X130341429Y-95525996D01*
X130272700Y-95800184D01*
X130258783Y-96082512D01*
X122256000Y-96082512D01*
X122256000Y-95699110D01*
X126279524Y-95699110D01*
X126400845Y-95929000D01*
X127594000Y-95929000D01*
X127594000Y-94735186D01*
X127848000Y-94735186D01*
X127848000Y-95929000D01*
X129041155Y-95929000D01*
X129162476Y-95699110D01*
X129117825Y-95551901D01*
X128992641Y-95289080D01*
X128818588Y-95055731D01*
X128778170Y-95019298D01*
X130885903Y-95019298D01*
X131699000Y-95832395D01*
X132512097Y-95019298D01*
X132440514Y-94775329D01*
X132185004Y-94654429D01*
X131910816Y-94585700D01*
X131628488Y-94571783D01*
X131348870Y-94613213D01*
X131082708Y-94708397D01*
X130957486Y-94775329D01*
X130885903Y-95019298D01*
X128778170Y-95019298D01*
X128602355Y-94860822D01*
X128352252Y-94711843D01*
X128077891Y-94614519D01*
X127848000Y-94735186D01*
X127594000Y-94735186D01*
X127364109Y-94614519D01*
X127089748Y-94711843D01*
X126839645Y-94860822D01*
X126623412Y-95055731D01*
X126449359Y-95289080D01*
X126324175Y-95551901D01*
X126279524Y-95699110D01*
X122256000Y-95699110D01*
X122256000Y-93702702D01*
X130885903Y-93702702D01*
X130957486Y-93946671D01*
X131212996Y-94067571D01*
X131487184Y-94136300D01*
X131769512Y-94150217D01*
X132049130Y-94108787D01*
X132315292Y-94013603D01*
X132440514Y-93946671D01*
X132512097Y-93702702D01*
X131699000Y-92889605D01*
X130885903Y-93702702D01*
X122256000Y-93702702D01*
X122256000Y-92780512D01*
X130258783Y-92780512D01*
X130300213Y-93060130D01*
X130395397Y-93326292D01*
X130462329Y-93451514D01*
X130706298Y-93523097D01*
X131519395Y-92710000D01*
X131878605Y-92710000D01*
X132691702Y-93523097D01*
X132935671Y-93451514D01*
X133056571Y-93196004D01*
X133125300Y-92921816D01*
X133139217Y-92639488D01*
X133097787Y-92359870D01*
X133002603Y-92093708D01*
X132935671Y-91968486D01*
X132691702Y-91896903D01*
X131878605Y-92710000D01*
X131519395Y-92710000D01*
X130706298Y-91896903D01*
X130462329Y-91968486D01*
X130341429Y-92223996D01*
X130272700Y-92498184D01*
X130258783Y-92780512D01*
X122256000Y-92780512D01*
X122256000Y-91717298D01*
X130885903Y-91717298D01*
X131699000Y-92530395D01*
X132512097Y-91717298D01*
X132440514Y-91473329D01*
X132185004Y-91352429D01*
X131910816Y-91283700D01*
X131628488Y-91269783D01*
X131348870Y-91311213D01*
X131082708Y-91406397D01*
X130957486Y-91473329D01*
X130885903Y-91717298D01*
X122256000Y-91717298D01*
X122256000Y-86988285D01*
X122536000Y-86988285D01*
X122536000Y-87743715D01*
X122683377Y-88484628D01*
X122972467Y-89182554D01*
X123392161Y-89810670D01*
X123926330Y-90344839D01*
X124554446Y-90764533D01*
X125252372Y-91053623D01*
X125993285Y-91201000D01*
X126748715Y-91201000D01*
X127489628Y-91053623D01*
X128187554Y-90764533D01*
X128815670Y-90344839D01*
X129349839Y-89810670D01*
X129769533Y-89182554D01*
X130058623Y-88484628D01*
X130206000Y-87743715D01*
X130206000Y-86988285D01*
X152536000Y-86988285D01*
X152536000Y-87743715D01*
X152683377Y-88484628D01*
X152972467Y-89182554D01*
X153392161Y-89810670D01*
X153926330Y-90344839D01*
X154554446Y-90764533D01*
X155252372Y-91053623D01*
X155993285Y-91201000D01*
X156748715Y-91201000D01*
X157489628Y-91053623D01*
X158187554Y-90764533D01*
X158815670Y-90344839D01*
X159349839Y-89810670D01*
X159769533Y-89182554D01*
X160058623Y-88484628D01*
X160206000Y-87743715D01*
X160206000Y-86988285D01*
X160058623Y-86247372D01*
X159769533Y-85549446D01*
X159349839Y-84921330D01*
X158815670Y-84387161D01*
X158187554Y-83967467D01*
X157489628Y-83678377D01*
X156748715Y-83531000D01*
X155993285Y-83531000D01*
X155252372Y-83678377D01*
X154554446Y-83967467D01*
X153926330Y-84387161D01*
X153392161Y-84921330D01*
X152972467Y-85549446D01*
X152683377Y-86247372D01*
X152536000Y-86988285D01*
X130206000Y-86988285D01*
X130058623Y-86247372D01*
X129769533Y-85549446D01*
X129349839Y-84921330D01*
X128815670Y-84387161D01*
X128187554Y-83967467D01*
X127549074Y-83703000D01*
X140098810Y-83703000D01*
X140098810Y-86673000D01*
X142521191Y-86673000D01*
X142521191Y-83703000D01*
X140098810Y-83703000D01*
X127549074Y-83703000D01*
X127489628Y-83678377D01*
X126748715Y-83531000D01*
X125993285Y-83531000D01*
X125252372Y-83678377D01*
X124554446Y-83967467D01*
X123926330Y-84387161D01*
X123392161Y-84921330D01*
X122972467Y-85549446D01*
X122683377Y-86247372D01*
X122536000Y-86988285D01*
X122256000Y-86988285D01*
X122256000Y-83251000D01*
X160486000Y-83251000D01*
X160486001Y-116481000D01*
M02*
