G04 #@! TF.GenerationSoftware,KiCad,Pcbnew,(5.1.4)-1*
G04 #@! TF.CreationDate,2020-01-29T13:18:04+01:00*
G04 #@! TF.ProjectId,OneWire_Adapter,4f6e6557-6972-4655-9f41-646170746572,1.0*
G04 #@! TF.SameCoordinates,Original*
G04 #@! TF.FileFunction,Copper,L2,Bot*
G04 #@! TF.FilePolarity,Positive*
%FSLAX46Y46*%
G04 Gerber Fmt 4.6, Leading zero omitted, Abs format (unit mm)*
G04 Created by KiCad (PCBNEW (5.1.4)-1) date 2020-01-29 13:18:04*
%MOMM*%
%LPD*%
G04 APERTURE LIST*
%ADD10C,0.200000*%
%ADD11C,6.400000*%
%ADD12C,0.800000*%
%ADD13O,1.700000X1.700000*%
%ADD14R,1.700000X1.700000*%
%ADD15R,1.500000X1.050000*%
%ADD16O,1.500000X1.050000*%
%ADD17O,1.600000X1.600000*%
%ADD18C,1.600000*%
%ADD19C,0.254000*%
G04 APERTURE END LIST*
D10*
X143754714Y-84655619D02*
X143707095Y-84608000D01*
X143611857Y-84560380D01*
X143373761Y-84560380D01*
X143278523Y-84608000D01*
X143230904Y-84655619D01*
X143183285Y-84750857D01*
X143183285Y-84846095D01*
X143230904Y-84988952D01*
X143802333Y-85560380D01*
X143183285Y-85560380D01*
D11*
X126371000Y-112366000D03*
D12*
X128771000Y-112366000D03*
X128068056Y-114063056D03*
X126371000Y-114766000D03*
X124673944Y-114063056D03*
X123971000Y-112366000D03*
X124673944Y-110668944D03*
X126371000Y-109966000D03*
X128068056Y-110668944D03*
D11*
X126371000Y-87366000D03*
D12*
X128771000Y-87366000D03*
X128068056Y-89063056D03*
X126371000Y-89766000D03*
X124673944Y-89063056D03*
X123971000Y-87366000D03*
X124673944Y-85668944D03*
X126371000Y-84966000D03*
X128068056Y-85668944D03*
D11*
X156371000Y-87366000D03*
D12*
X158771000Y-87366000D03*
X158068056Y-89063056D03*
X156371000Y-89766000D03*
X154673944Y-89063056D03*
X153971000Y-87366000D03*
X154673944Y-85668944D03*
X156371000Y-84966000D03*
X158068056Y-85668944D03*
D13*
X156677000Y-102406000D03*
X156677000Y-99866000D03*
D14*
X156677000Y-97326000D03*
D13*
X127721000Y-96056000D03*
X127721000Y-98596000D03*
X127721000Y-101136000D03*
D14*
X127721000Y-103676000D03*
D15*
X151892000Y-96774000D03*
D16*
X151892000Y-99314000D03*
X151892000Y-98044000D03*
D15*
X146050000Y-96774000D03*
D16*
X146050000Y-99314000D03*
X146050000Y-98044000D03*
D17*
X141859000Y-92710000D03*
D18*
X131699000Y-92710000D03*
D17*
X141859000Y-96012000D03*
D18*
X131699000Y-96012000D03*
D17*
X141859000Y-99314000D03*
D18*
X131699000Y-99314000D03*
D12*
X158068056Y-110668944D03*
X156371000Y-109966000D03*
X154673944Y-110668944D03*
X153971000Y-112366000D03*
X154673944Y-114063056D03*
X156371000Y-114766000D03*
X158068056Y-114063056D03*
X158771000Y-112366000D03*
D11*
X156371000Y-112366000D03*
D19*
G36*
X160486001Y-116481000D02*
G01*
X122256000Y-116481000D01*
X122256000Y-111988285D01*
X122536000Y-111988285D01*
X122536000Y-112743715D01*
X122683377Y-113484628D01*
X122972467Y-114182554D01*
X123392161Y-114810670D01*
X123926330Y-115344839D01*
X124554446Y-115764533D01*
X125252372Y-116053623D01*
X125993285Y-116201000D01*
X126748715Y-116201000D01*
X127489628Y-116053623D01*
X128187554Y-115764533D01*
X128815670Y-115344839D01*
X129349839Y-114810670D01*
X129769533Y-114182554D01*
X130058623Y-113484628D01*
X130206000Y-112743715D01*
X130206000Y-111988285D01*
X152536000Y-111988285D01*
X152536000Y-112743715D01*
X152683377Y-113484628D01*
X152972467Y-114182554D01*
X153392161Y-114810670D01*
X153926330Y-115344839D01*
X154554446Y-115764533D01*
X155252372Y-116053623D01*
X155993285Y-116201000D01*
X156748715Y-116201000D01*
X157489628Y-116053623D01*
X158187554Y-115764533D01*
X158815670Y-115344839D01*
X159349839Y-114810670D01*
X159769533Y-114182554D01*
X160058623Y-113484628D01*
X160206000Y-112743715D01*
X160206000Y-111988285D01*
X160058623Y-111247372D01*
X159769533Y-110549446D01*
X159349839Y-109921330D01*
X158815670Y-109387161D01*
X158187554Y-108967467D01*
X157489628Y-108678377D01*
X156748715Y-108531000D01*
X155993285Y-108531000D01*
X155252372Y-108678377D01*
X154554446Y-108967467D01*
X153926330Y-109387161D01*
X153392161Y-109921330D01*
X152972467Y-110549446D01*
X152683377Y-111247372D01*
X152536000Y-111988285D01*
X130206000Y-111988285D01*
X130058623Y-111247372D01*
X129769533Y-110549446D01*
X129349839Y-109921330D01*
X128815670Y-109387161D01*
X128187554Y-108967467D01*
X127489628Y-108678377D01*
X126748715Y-108531000D01*
X125993285Y-108531000D01*
X125252372Y-108678377D01*
X124554446Y-108967467D01*
X123926330Y-109387161D01*
X123392161Y-109921330D01*
X122972467Y-110549446D01*
X122683377Y-111247372D01*
X122536000Y-111988285D01*
X122256000Y-111988285D01*
X122256000Y-104526000D01*
X126232928Y-104526000D01*
X126245188Y-104650482D01*
X126281498Y-104770180D01*
X126340463Y-104880494D01*
X126419815Y-104977185D01*
X126516506Y-105056537D01*
X126626820Y-105115502D01*
X126746518Y-105151812D01*
X126871000Y-105164072D01*
X127435250Y-105161000D01*
X127594000Y-105002250D01*
X127594000Y-103803000D01*
X127848000Y-103803000D01*
X127848000Y-105002250D01*
X128006750Y-105161000D01*
X128571000Y-105164072D01*
X128695482Y-105151812D01*
X128815180Y-105115502D01*
X128925494Y-105056537D01*
X129022185Y-104977185D01*
X129101537Y-104880494D01*
X129160502Y-104770180D01*
X129196812Y-104650482D01*
X129209072Y-104526000D01*
X129206000Y-103961750D01*
X129047250Y-103803000D01*
X127848000Y-103803000D01*
X127594000Y-103803000D01*
X126394750Y-103803000D01*
X126236000Y-103961750D01*
X126232928Y-104526000D01*
X122256000Y-104526000D01*
X122256000Y-96056000D01*
X126228815Y-96056000D01*
X126257487Y-96347111D01*
X126342401Y-96627034D01*
X126480294Y-96885014D01*
X126665866Y-97111134D01*
X126891986Y-97296706D01*
X126946791Y-97326000D01*
X126891986Y-97355294D01*
X126665866Y-97540866D01*
X126480294Y-97766986D01*
X126342401Y-98024966D01*
X126257487Y-98304889D01*
X126228815Y-98596000D01*
X126257487Y-98887111D01*
X126342401Y-99167034D01*
X126480294Y-99425014D01*
X126665866Y-99651134D01*
X126891986Y-99836706D01*
X126946791Y-99866000D01*
X126891986Y-99895294D01*
X126665866Y-100080866D01*
X126480294Y-100306986D01*
X126342401Y-100564966D01*
X126257487Y-100844889D01*
X126228815Y-101136000D01*
X126257487Y-101427111D01*
X126342401Y-101707034D01*
X126480294Y-101965014D01*
X126665866Y-102191134D01*
X126695687Y-102215607D01*
X126626820Y-102236498D01*
X126516506Y-102295463D01*
X126419815Y-102374815D01*
X126340463Y-102471506D01*
X126281498Y-102581820D01*
X126245188Y-102701518D01*
X126232928Y-102826000D01*
X126236000Y-103390250D01*
X126394750Y-103549000D01*
X127594000Y-103549000D01*
X127594000Y-103529000D01*
X127848000Y-103529000D01*
X127848000Y-103549000D01*
X129047250Y-103549000D01*
X129206000Y-103390250D01*
X129209072Y-102826000D01*
X129202857Y-102762890D01*
X155235524Y-102762890D01*
X155280175Y-102910099D01*
X155405359Y-103172920D01*
X155579412Y-103406269D01*
X155795645Y-103601178D01*
X156045748Y-103750157D01*
X156320109Y-103847481D01*
X156550000Y-103726814D01*
X156550000Y-102533000D01*
X156804000Y-102533000D01*
X156804000Y-103726814D01*
X157033891Y-103847481D01*
X157308252Y-103750157D01*
X157558355Y-103601178D01*
X157774588Y-103406269D01*
X157948641Y-103172920D01*
X158073825Y-102910099D01*
X158118476Y-102762890D01*
X157997155Y-102533000D01*
X156804000Y-102533000D01*
X156550000Y-102533000D01*
X155356845Y-102533000D01*
X155235524Y-102762890D01*
X129202857Y-102762890D01*
X129196812Y-102701518D01*
X129160502Y-102581820D01*
X129101537Y-102471506D01*
X129022185Y-102374815D01*
X128925494Y-102295463D01*
X128815180Y-102236498D01*
X128746313Y-102215607D01*
X128776134Y-102191134D01*
X128961706Y-101965014D01*
X129099599Y-101707034D01*
X129184513Y-101427111D01*
X129213185Y-101136000D01*
X129184513Y-100844889D01*
X129099599Y-100564966D01*
X128961706Y-100306986D01*
X128776134Y-100080866D01*
X128550014Y-99895294D01*
X128495209Y-99866000D01*
X128550014Y-99836706D01*
X128776134Y-99651134D01*
X128961706Y-99425014D01*
X129096589Y-99172665D01*
X130264000Y-99172665D01*
X130264000Y-99455335D01*
X130319147Y-99732574D01*
X130427320Y-99993727D01*
X130584363Y-100228759D01*
X130784241Y-100428637D01*
X131019273Y-100585680D01*
X131280426Y-100693853D01*
X131557665Y-100749000D01*
X131840335Y-100749000D01*
X132117574Y-100693853D01*
X132378727Y-100585680D01*
X132613759Y-100428637D01*
X132813637Y-100228759D01*
X132970680Y-99993727D01*
X133078853Y-99732574D01*
X133134000Y-99455335D01*
X133134000Y-99314000D01*
X140417057Y-99314000D01*
X140444764Y-99595309D01*
X140526818Y-99865808D01*
X140660068Y-100115101D01*
X140839392Y-100333608D01*
X141057899Y-100512932D01*
X141307192Y-100646182D01*
X141577691Y-100728236D01*
X141788508Y-100749000D01*
X141929492Y-100749000D01*
X142140309Y-100728236D01*
X142410808Y-100646182D01*
X142660101Y-100512932D01*
X142878608Y-100333608D01*
X143057932Y-100115101D01*
X143191182Y-99865808D01*
X143265803Y-99619810D01*
X144706036Y-99619810D01*
X144714728Y-99681337D01*
X144807725Y-99890882D01*
X144939816Y-100078258D01*
X145105924Y-100236264D01*
X145299666Y-100358828D01*
X145513596Y-100441239D01*
X145739493Y-100480331D01*
X145923000Y-100320598D01*
X145923000Y-99441000D01*
X146177000Y-99441000D01*
X146177000Y-100320598D01*
X146360507Y-100480331D01*
X146586404Y-100441239D01*
X146800334Y-100358828D01*
X146994076Y-100236264D01*
X147160184Y-100078258D01*
X147292275Y-99890882D01*
X147385272Y-99681337D01*
X147393964Y-99619810D01*
X150548036Y-99619810D01*
X150556728Y-99681337D01*
X150649725Y-99890882D01*
X150781816Y-100078258D01*
X150947924Y-100236264D01*
X151141666Y-100358828D01*
X151355596Y-100441239D01*
X151581493Y-100480331D01*
X151765000Y-100320598D01*
X151765000Y-99441000D01*
X152019000Y-99441000D01*
X152019000Y-100320598D01*
X152202507Y-100480331D01*
X152428404Y-100441239D01*
X152642334Y-100358828D01*
X152836076Y-100236264D01*
X153002184Y-100078258D01*
X153134275Y-99890882D01*
X153145317Y-99866000D01*
X155184815Y-99866000D01*
X155213487Y-100157111D01*
X155298401Y-100437034D01*
X155436294Y-100695014D01*
X155621866Y-100921134D01*
X155847986Y-101106706D01*
X155912523Y-101141201D01*
X155795645Y-101210822D01*
X155579412Y-101405731D01*
X155405359Y-101639080D01*
X155280175Y-101901901D01*
X155235524Y-102049110D01*
X155356845Y-102279000D01*
X156550000Y-102279000D01*
X156550000Y-102259000D01*
X156804000Y-102259000D01*
X156804000Y-102279000D01*
X157997155Y-102279000D01*
X158118476Y-102049110D01*
X158073825Y-101901901D01*
X157948641Y-101639080D01*
X157774588Y-101405731D01*
X157558355Y-101210822D01*
X157441477Y-101141201D01*
X157506014Y-101106706D01*
X157732134Y-100921134D01*
X157917706Y-100695014D01*
X158055599Y-100437034D01*
X158140513Y-100157111D01*
X158169185Y-99866000D01*
X158140513Y-99574889D01*
X158055599Y-99294966D01*
X157917706Y-99036986D01*
X157732134Y-98810866D01*
X157702313Y-98786393D01*
X157771180Y-98765502D01*
X157881494Y-98706537D01*
X157978185Y-98627185D01*
X158057537Y-98530494D01*
X158116502Y-98420180D01*
X158152812Y-98300482D01*
X158165072Y-98176000D01*
X158165072Y-96476000D01*
X158152812Y-96351518D01*
X158116502Y-96231820D01*
X158057537Y-96121506D01*
X157978185Y-96024815D01*
X157881494Y-95945463D01*
X157771180Y-95886498D01*
X157651482Y-95850188D01*
X157527000Y-95837928D01*
X155827000Y-95837928D01*
X155702518Y-95850188D01*
X155582820Y-95886498D01*
X155472506Y-95945463D01*
X155375815Y-96024815D01*
X155296463Y-96121506D01*
X155237498Y-96231820D01*
X155201188Y-96351518D01*
X155188928Y-96476000D01*
X155188928Y-98176000D01*
X155201188Y-98300482D01*
X155237498Y-98420180D01*
X155296463Y-98530494D01*
X155375815Y-98627185D01*
X155472506Y-98706537D01*
X155582820Y-98765502D01*
X155651687Y-98786393D01*
X155621866Y-98810866D01*
X155436294Y-99036986D01*
X155298401Y-99294966D01*
X155213487Y-99574889D01*
X155184815Y-99866000D01*
X153145317Y-99866000D01*
X153227272Y-99681337D01*
X153235964Y-99619810D01*
X153110163Y-99441000D01*
X152019000Y-99441000D01*
X151765000Y-99441000D01*
X150673837Y-99441000D01*
X150548036Y-99619810D01*
X147393964Y-99619810D01*
X147268163Y-99441000D01*
X146177000Y-99441000D01*
X145923000Y-99441000D01*
X144831837Y-99441000D01*
X144706036Y-99619810D01*
X143265803Y-99619810D01*
X143273236Y-99595309D01*
X143300943Y-99314000D01*
X143273236Y-99032691D01*
X143191182Y-98762192D01*
X143057932Y-98512899D01*
X142878608Y-98294392D01*
X142660101Y-98115068D01*
X142527143Y-98044000D01*
X144659388Y-98044000D01*
X144681785Y-98271400D01*
X144748115Y-98490060D01*
X144848929Y-98678669D01*
X144807725Y-98737118D01*
X144714728Y-98946663D01*
X144706036Y-99008190D01*
X144831837Y-99187000D01*
X145596891Y-99187000D01*
X145597600Y-99187215D01*
X145768021Y-99204000D01*
X146331979Y-99204000D01*
X146502400Y-99187215D01*
X146503109Y-99187000D01*
X147268163Y-99187000D01*
X147393964Y-99008190D01*
X147385272Y-98946663D01*
X147292275Y-98737118D01*
X147251071Y-98678669D01*
X147351885Y-98490060D01*
X147418215Y-98271400D01*
X147440612Y-98044000D01*
X150501388Y-98044000D01*
X150523785Y-98271400D01*
X150590115Y-98490060D01*
X150690929Y-98678669D01*
X150649725Y-98737118D01*
X150556728Y-98946663D01*
X150548036Y-99008190D01*
X150673837Y-99187000D01*
X151438891Y-99187000D01*
X151439600Y-99187215D01*
X151610021Y-99204000D01*
X152173979Y-99204000D01*
X152344400Y-99187215D01*
X152345109Y-99187000D01*
X153110163Y-99187000D01*
X153235964Y-99008190D01*
X153227272Y-98946663D01*
X153134275Y-98737118D01*
X153093071Y-98678669D01*
X153193885Y-98490060D01*
X153260215Y-98271400D01*
X153282612Y-98044000D01*
X153260215Y-97816600D01*
X153196907Y-97607902D01*
X153231502Y-97543180D01*
X153267812Y-97423482D01*
X153280072Y-97299000D01*
X153280072Y-96249000D01*
X153267812Y-96124518D01*
X153231502Y-96004820D01*
X153172537Y-95894506D01*
X153093185Y-95797815D01*
X152996494Y-95718463D01*
X152886180Y-95659498D01*
X152766482Y-95623188D01*
X152642000Y-95610928D01*
X151142000Y-95610928D01*
X151017518Y-95623188D01*
X150897820Y-95659498D01*
X150787506Y-95718463D01*
X150690815Y-95797815D01*
X150611463Y-95894506D01*
X150552498Y-96004820D01*
X150516188Y-96124518D01*
X150503928Y-96249000D01*
X150503928Y-97299000D01*
X150516188Y-97423482D01*
X150552498Y-97543180D01*
X150587093Y-97607902D01*
X150523785Y-97816600D01*
X150501388Y-98044000D01*
X147440612Y-98044000D01*
X147418215Y-97816600D01*
X147354907Y-97607902D01*
X147389502Y-97543180D01*
X147425812Y-97423482D01*
X147438072Y-97299000D01*
X147438072Y-96249000D01*
X147425812Y-96124518D01*
X147389502Y-96004820D01*
X147330537Y-95894506D01*
X147251185Y-95797815D01*
X147154494Y-95718463D01*
X147044180Y-95659498D01*
X146924482Y-95623188D01*
X146800000Y-95610928D01*
X145300000Y-95610928D01*
X145175518Y-95623188D01*
X145055820Y-95659498D01*
X144945506Y-95718463D01*
X144848815Y-95797815D01*
X144769463Y-95894506D01*
X144710498Y-96004820D01*
X144674188Y-96124518D01*
X144661928Y-96249000D01*
X144661928Y-97299000D01*
X144674188Y-97423482D01*
X144710498Y-97543180D01*
X144745093Y-97607902D01*
X144681785Y-97816600D01*
X144659388Y-98044000D01*
X142527143Y-98044000D01*
X142410808Y-97981818D01*
X142140309Y-97899764D01*
X141929492Y-97879000D01*
X141788508Y-97879000D01*
X141577691Y-97899764D01*
X141307192Y-97981818D01*
X141057899Y-98115068D01*
X140839392Y-98294392D01*
X140660068Y-98512899D01*
X140526818Y-98762192D01*
X140444764Y-99032691D01*
X140417057Y-99314000D01*
X133134000Y-99314000D01*
X133134000Y-99172665D01*
X133078853Y-98895426D01*
X132970680Y-98634273D01*
X132813637Y-98399241D01*
X132613759Y-98199363D01*
X132378727Y-98042320D01*
X132117574Y-97934147D01*
X131840335Y-97879000D01*
X131557665Y-97879000D01*
X131280426Y-97934147D01*
X131019273Y-98042320D01*
X130784241Y-98199363D01*
X130584363Y-98399241D01*
X130427320Y-98634273D01*
X130319147Y-98895426D01*
X130264000Y-99172665D01*
X129096589Y-99172665D01*
X129099599Y-99167034D01*
X129184513Y-98887111D01*
X129213185Y-98596000D01*
X129184513Y-98304889D01*
X129099599Y-98024966D01*
X128961706Y-97766986D01*
X128776134Y-97540866D01*
X128550014Y-97355294D01*
X128495209Y-97326000D01*
X128550014Y-97296706D01*
X128776134Y-97111134D01*
X128961706Y-96885014D01*
X129099599Y-96627034D01*
X129184513Y-96347111D01*
X129213185Y-96056000D01*
X129194932Y-95870665D01*
X130264000Y-95870665D01*
X130264000Y-96153335D01*
X130319147Y-96430574D01*
X130427320Y-96691727D01*
X130584363Y-96926759D01*
X130784241Y-97126637D01*
X131019273Y-97283680D01*
X131280426Y-97391853D01*
X131557665Y-97447000D01*
X131840335Y-97447000D01*
X132117574Y-97391853D01*
X132378727Y-97283680D01*
X132613759Y-97126637D01*
X132813637Y-96926759D01*
X132970680Y-96691727D01*
X133078853Y-96430574D01*
X133134000Y-96153335D01*
X133134000Y-96012000D01*
X140417057Y-96012000D01*
X140444764Y-96293309D01*
X140526818Y-96563808D01*
X140660068Y-96813101D01*
X140839392Y-97031608D01*
X141057899Y-97210932D01*
X141307192Y-97344182D01*
X141577691Y-97426236D01*
X141788508Y-97447000D01*
X141929492Y-97447000D01*
X142140309Y-97426236D01*
X142410808Y-97344182D01*
X142660101Y-97210932D01*
X142878608Y-97031608D01*
X143057932Y-96813101D01*
X143191182Y-96563808D01*
X143273236Y-96293309D01*
X143300943Y-96012000D01*
X143273236Y-95730691D01*
X143191182Y-95460192D01*
X143057932Y-95210899D01*
X142878608Y-94992392D01*
X142660101Y-94813068D01*
X142410808Y-94679818D01*
X142140309Y-94597764D01*
X141929492Y-94577000D01*
X141788508Y-94577000D01*
X141577691Y-94597764D01*
X141307192Y-94679818D01*
X141057899Y-94813068D01*
X140839392Y-94992392D01*
X140660068Y-95210899D01*
X140526818Y-95460192D01*
X140444764Y-95730691D01*
X140417057Y-96012000D01*
X133134000Y-96012000D01*
X133134000Y-95870665D01*
X133078853Y-95593426D01*
X132970680Y-95332273D01*
X132813637Y-95097241D01*
X132613759Y-94897363D01*
X132378727Y-94740320D01*
X132117574Y-94632147D01*
X131840335Y-94577000D01*
X131557665Y-94577000D01*
X131280426Y-94632147D01*
X131019273Y-94740320D01*
X130784241Y-94897363D01*
X130584363Y-95097241D01*
X130427320Y-95332273D01*
X130319147Y-95593426D01*
X130264000Y-95870665D01*
X129194932Y-95870665D01*
X129184513Y-95764889D01*
X129099599Y-95484966D01*
X128961706Y-95226986D01*
X128776134Y-95000866D01*
X128550014Y-94815294D01*
X128292034Y-94677401D01*
X128012111Y-94592487D01*
X127793950Y-94571000D01*
X127648050Y-94571000D01*
X127429889Y-94592487D01*
X127149966Y-94677401D01*
X126891986Y-94815294D01*
X126665866Y-95000866D01*
X126480294Y-95226986D01*
X126342401Y-95484966D01*
X126257487Y-95764889D01*
X126228815Y-96056000D01*
X122256000Y-96056000D01*
X122256000Y-92568665D01*
X130264000Y-92568665D01*
X130264000Y-92851335D01*
X130319147Y-93128574D01*
X130427320Y-93389727D01*
X130584363Y-93624759D01*
X130784241Y-93824637D01*
X131019273Y-93981680D01*
X131280426Y-94089853D01*
X131557665Y-94145000D01*
X131840335Y-94145000D01*
X132117574Y-94089853D01*
X132378727Y-93981680D01*
X132613759Y-93824637D01*
X132813637Y-93624759D01*
X132970680Y-93389727D01*
X133078853Y-93128574D01*
X133134000Y-92851335D01*
X133134000Y-92710000D01*
X140417057Y-92710000D01*
X140444764Y-92991309D01*
X140526818Y-93261808D01*
X140660068Y-93511101D01*
X140839392Y-93729608D01*
X141057899Y-93908932D01*
X141307192Y-94042182D01*
X141577691Y-94124236D01*
X141788508Y-94145000D01*
X141929492Y-94145000D01*
X142140309Y-94124236D01*
X142410808Y-94042182D01*
X142660101Y-93908932D01*
X142878608Y-93729608D01*
X143057932Y-93511101D01*
X143191182Y-93261808D01*
X143273236Y-92991309D01*
X143300943Y-92710000D01*
X143273236Y-92428691D01*
X143191182Y-92158192D01*
X143057932Y-91908899D01*
X142878608Y-91690392D01*
X142660101Y-91511068D01*
X142410808Y-91377818D01*
X142140309Y-91295764D01*
X141929492Y-91275000D01*
X141788508Y-91275000D01*
X141577691Y-91295764D01*
X141307192Y-91377818D01*
X141057899Y-91511068D01*
X140839392Y-91690392D01*
X140660068Y-91908899D01*
X140526818Y-92158192D01*
X140444764Y-92428691D01*
X140417057Y-92710000D01*
X133134000Y-92710000D01*
X133134000Y-92568665D01*
X133078853Y-92291426D01*
X132970680Y-92030273D01*
X132813637Y-91795241D01*
X132613759Y-91595363D01*
X132378727Y-91438320D01*
X132117574Y-91330147D01*
X131840335Y-91275000D01*
X131557665Y-91275000D01*
X131280426Y-91330147D01*
X131019273Y-91438320D01*
X130784241Y-91595363D01*
X130584363Y-91795241D01*
X130427320Y-92030273D01*
X130319147Y-92291426D01*
X130264000Y-92568665D01*
X122256000Y-92568665D01*
X122256000Y-86988285D01*
X122536000Y-86988285D01*
X122536000Y-87743715D01*
X122683377Y-88484628D01*
X122972467Y-89182554D01*
X123392161Y-89810670D01*
X123926330Y-90344839D01*
X124554446Y-90764533D01*
X125252372Y-91053623D01*
X125993285Y-91201000D01*
X126748715Y-91201000D01*
X127489628Y-91053623D01*
X128187554Y-90764533D01*
X128815670Y-90344839D01*
X129349839Y-89810670D01*
X129769533Y-89182554D01*
X130058623Y-88484628D01*
X130206000Y-87743715D01*
X130206000Y-86988285D01*
X152536000Y-86988285D01*
X152536000Y-87743715D01*
X152683377Y-88484628D01*
X152972467Y-89182554D01*
X153392161Y-89810670D01*
X153926330Y-90344839D01*
X154554446Y-90764533D01*
X155252372Y-91053623D01*
X155993285Y-91201000D01*
X156748715Y-91201000D01*
X157489628Y-91053623D01*
X158187554Y-90764533D01*
X158815670Y-90344839D01*
X159349839Y-89810670D01*
X159769533Y-89182554D01*
X160058623Y-88484628D01*
X160206000Y-87743715D01*
X160206000Y-86988285D01*
X160058623Y-86247372D01*
X159769533Y-85549446D01*
X159349839Y-84921330D01*
X158815670Y-84387161D01*
X158187554Y-83967467D01*
X157489628Y-83678377D01*
X156748715Y-83531000D01*
X155993285Y-83531000D01*
X155252372Y-83678377D01*
X154554446Y-83967467D01*
X153926330Y-84387161D01*
X153392161Y-84921330D01*
X152972467Y-85549446D01*
X152683377Y-86247372D01*
X152536000Y-86988285D01*
X130206000Y-86988285D01*
X130058623Y-86247372D01*
X129769533Y-85549446D01*
X129349839Y-84921330D01*
X128815670Y-84387161D01*
X128187554Y-83967467D01*
X127549074Y-83703000D01*
X142257810Y-83703000D01*
X142257810Y-86673000D01*
X144680191Y-86673000D01*
X144680191Y-83703000D01*
X142257810Y-83703000D01*
X127549074Y-83703000D01*
X127489628Y-83678377D01*
X126748715Y-83531000D01*
X125993285Y-83531000D01*
X125252372Y-83678377D01*
X124554446Y-83967467D01*
X123926330Y-84387161D01*
X123392161Y-84921330D01*
X122972467Y-85549446D01*
X122683377Y-86247372D01*
X122536000Y-86988285D01*
X122256000Y-86988285D01*
X122256000Y-83251000D01*
X160486000Y-83251000D01*
X160486001Y-116481000D01*
X160486001Y-116481000D01*
G37*
X160486001Y-116481000D02*
X122256000Y-116481000D01*
X122256000Y-111988285D01*
X122536000Y-111988285D01*
X122536000Y-112743715D01*
X122683377Y-113484628D01*
X122972467Y-114182554D01*
X123392161Y-114810670D01*
X123926330Y-115344839D01*
X124554446Y-115764533D01*
X125252372Y-116053623D01*
X125993285Y-116201000D01*
X126748715Y-116201000D01*
X127489628Y-116053623D01*
X128187554Y-115764533D01*
X128815670Y-115344839D01*
X129349839Y-114810670D01*
X129769533Y-114182554D01*
X130058623Y-113484628D01*
X130206000Y-112743715D01*
X130206000Y-111988285D01*
X152536000Y-111988285D01*
X152536000Y-112743715D01*
X152683377Y-113484628D01*
X152972467Y-114182554D01*
X153392161Y-114810670D01*
X153926330Y-115344839D01*
X154554446Y-115764533D01*
X155252372Y-116053623D01*
X155993285Y-116201000D01*
X156748715Y-116201000D01*
X157489628Y-116053623D01*
X158187554Y-115764533D01*
X158815670Y-115344839D01*
X159349839Y-114810670D01*
X159769533Y-114182554D01*
X160058623Y-113484628D01*
X160206000Y-112743715D01*
X160206000Y-111988285D01*
X160058623Y-111247372D01*
X159769533Y-110549446D01*
X159349839Y-109921330D01*
X158815670Y-109387161D01*
X158187554Y-108967467D01*
X157489628Y-108678377D01*
X156748715Y-108531000D01*
X155993285Y-108531000D01*
X155252372Y-108678377D01*
X154554446Y-108967467D01*
X153926330Y-109387161D01*
X153392161Y-109921330D01*
X152972467Y-110549446D01*
X152683377Y-111247372D01*
X152536000Y-111988285D01*
X130206000Y-111988285D01*
X130058623Y-111247372D01*
X129769533Y-110549446D01*
X129349839Y-109921330D01*
X128815670Y-109387161D01*
X128187554Y-108967467D01*
X127489628Y-108678377D01*
X126748715Y-108531000D01*
X125993285Y-108531000D01*
X125252372Y-108678377D01*
X124554446Y-108967467D01*
X123926330Y-109387161D01*
X123392161Y-109921330D01*
X122972467Y-110549446D01*
X122683377Y-111247372D01*
X122536000Y-111988285D01*
X122256000Y-111988285D01*
X122256000Y-104526000D01*
X126232928Y-104526000D01*
X126245188Y-104650482D01*
X126281498Y-104770180D01*
X126340463Y-104880494D01*
X126419815Y-104977185D01*
X126516506Y-105056537D01*
X126626820Y-105115502D01*
X126746518Y-105151812D01*
X126871000Y-105164072D01*
X127435250Y-105161000D01*
X127594000Y-105002250D01*
X127594000Y-103803000D01*
X127848000Y-103803000D01*
X127848000Y-105002250D01*
X128006750Y-105161000D01*
X128571000Y-105164072D01*
X128695482Y-105151812D01*
X128815180Y-105115502D01*
X128925494Y-105056537D01*
X129022185Y-104977185D01*
X129101537Y-104880494D01*
X129160502Y-104770180D01*
X129196812Y-104650482D01*
X129209072Y-104526000D01*
X129206000Y-103961750D01*
X129047250Y-103803000D01*
X127848000Y-103803000D01*
X127594000Y-103803000D01*
X126394750Y-103803000D01*
X126236000Y-103961750D01*
X126232928Y-104526000D01*
X122256000Y-104526000D01*
X122256000Y-96056000D01*
X126228815Y-96056000D01*
X126257487Y-96347111D01*
X126342401Y-96627034D01*
X126480294Y-96885014D01*
X126665866Y-97111134D01*
X126891986Y-97296706D01*
X126946791Y-97326000D01*
X126891986Y-97355294D01*
X126665866Y-97540866D01*
X126480294Y-97766986D01*
X126342401Y-98024966D01*
X126257487Y-98304889D01*
X126228815Y-98596000D01*
X126257487Y-98887111D01*
X126342401Y-99167034D01*
X126480294Y-99425014D01*
X126665866Y-99651134D01*
X126891986Y-99836706D01*
X126946791Y-99866000D01*
X126891986Y-99895294D01*
X126665866Y-100080866D01*
X126480294Y-100306986D01*
X126342401Y-100564966D01*
X126257487Y-100844889D01*
X126228815Y-101136000D01*
X126257487Y-101427111D01*
X126342401Y-101707034D01*
X126480294Y-101965014D01*
X126665866Y-102191134D01*
X126695687Y-102215607D01*
X126626820Y-102236498D01*
X126516506Y-102295463D01*
X126419815Y-102374815D01*
X126340463Y-102471506D01*
X126281498Y-102581820D01*
X126245188Y-102701518D01*
X126232928Y-102826000D01*
X126236000Y-103390250D01*
X126394750Y-103549000D01*
X127594000Y-103549000D01*
X127594000Y-103529000D01*
X127848000Y-103529000D01*
X127848000Y-103549000D01*
X129047250Y-103549000D01*
X129206000Y-103390250D01*
X129209072Y-102826000D01*
X129202857Y-102762890D01*
X155235524Y-102762890D01*
X155280175Y-102910099D01*
X155405359Y-103172920D01*
X155579412Y-103406269D01*
X155795645Y-103601178D01*
X156045748Y-103750157D01*
X156320109Y-103847481D01*
X156550000Y-103726814D01*
X156550000Y-102533000D01*
X156804000Y-102533000D01*
X156804000Y-103726814D01*
X157033891Y-103847481D01*
X157308252Y-103750157D01*
X157558355Y-103601178D01*
X157774588Y-103406269D01*
X157948641Y-103172920D01*
X158073825Y-102910099D01*
X158118476Y-102762890D01*
X157997155Y-102533000D01*
X156804000Y-102533000D01*
X156550000Y-102533000D01*
X155356845Y-102533000D01*
X155235524Y-102762890D01*
X129202857Y-102762890D01*
X129196812Y-102701518D01*
X129160502Y-102581820D01*
X129101537Y-102471506D01*
X129022185Y-102374815D01*
X128925494Y-102295463D01*
X128815180Y-102236498D01*
X128746313Y-102215607D01*
X128776134Y-102191134D01*
X128961706Y-101965014D01*
X129099599Y-101707034D01*
X129184513Y-101427111D01*
X129213185Y-101136000D01*
X129184513Y-100844889D01*
X129099599Y-100564966D01*
X128961706Y-100306986D01*
X128776134Y-100080866D01*
X128550014Y-99895294D01*
X128495209Y-99866000D01*
X128550014Y-99836706D01*
X128776134Y-99651134D01*
X128961706Y-99425014D01*
X129096589Y-99172665D01*
X130264000Y-99172665D01*
X130264000Y-99455335D01*
X130319147Y-99732574D01*
X130427320Y-99993727D01*
X130584363Y-100228759D01*
X130784241Y-100428637D01*
X131019273Y-100585680D01*
X131280426Y-100693853D01*
X131557665Y-100749000D01*
X131840335Y-100749000D01*
X132117574Y-100693853D01*
X132378727Y-100585680D01*
X132613759Y-100428637D01*
X132813637Y-100228759D01*
X132970680Y-99993727D01*
X133078853Y-99732574D01*
X133134000Y-99455335D01*
X133134000Y-99314000D01*
X140417057Y-99314000D01*
X140444764Y-99595309D01*
X140526818Y-99865808D01*
X140660068Y-100115101D01*
X140839392Y-100333608D01*
X141057899Y-100512932D01*
X141307192Y-100646182D01*
X141577691Y-100728236D01*
X141788508Y-100749000D01*
X141929492Y-100749000D01*
X142140309Y-100728236D01*
X142410808Y-100646182D01*
X142660101Y-100512932D01*
X142878608Y-100333608D01*
X143057932Y-100115101D01*
X143191182Y-99865808D01*
X143265803Y-99619810D01*
X144706036Y-99619810D01*
X144714728Y-99681337D01*
X144807725Y-99890882D01*
X144939816Y-100078258D01*
X145105924Y-100236264D01*
X145299666Y-100358828D01*
X145513596Y-100441239D01*
X145739493Y-100480331D01*
X145923000Y-100320598D01*
X145923000Y-99441000D01*
X146177000Y-99441000D01*
X146177000Y-100320598D01*
X146360507Y-100480331D01*
X146586404Y-100441239D01*
X146800334Y-100358828D01*
X146994076Y-100236264D01*
X147160184Y-100078258D01*
X147292275Y-99890882D01*
X147385272Y-99681337D01*
X147393964Y-99619810D01*
X150548036Y-99619810D01*
X150556728Y-99681337D01*
X150649725Y-99890882D01*
X150781816Y-100078258D01*
X150947924Y-100236264D01*
X151141666Y-100358828D01*
X151355596Y-100441239D01*
X151581493Y-100480331D01*
X151765000Y-100320598D01*
X151765000Y-99441000D01*
X152019000Y-99441000D01*
X152019000Y-100320598D01*
X152202507Y-100480331D01*
X152428404Y-100441239D01*
X152642334Y-100358828D01*
X152836076Y-100236264D01*
X153002184Y-100078258D01*
X153134275Y-99890882D01*
X153145317Y-99866000D01*
X155184815Y-99866000D01*
X155213487Y-100157111D01*
X155298401Y-100437034D01*
X155436294Y-100695014D01*
X155621866Y-100921134D01*
X155847986Y-101106706D01*
X155912523Y-101141201D01*
X155795645Y-101210822D01*
X155579412Y-101405731D01*
X155405359Y-101639080D01*
X155280175Y-101901901D01*
X155235524Y-102049110D01*
X155356845Y-102279000D01*
X156550000Y-102279000D01*
X156550000Y-102259000D01*
X156804000Y-102259000D01*
X156804000Y-102279000D01*
X157997155Y-102279000D01*
X158118476Y-102049110D01*
X158073825Y-101901901D01*
X157948641Y-101639080D01*
X157774588Y-101405731D01*
X157558355Y-101210822D01*
X157441477Y-101141201D01*
X157506014Y-101106706D01*
X157732134Y-100921134D01*
X157917706Y-100695014D01*
X158055599Y-100437034D01*
X158140513Y-100157111D01*
X158169185Y-99866000D01*
X158140513Y-99574889D01*
X158055599Y-99294966D01*
X157917706Y-99036986D01*
X157732134Y-98810866D01*
X157702313Y-98786393D01*
X157771180Y-98765502D01*
X157881494Y-98706537D01*
X157978185Y-98627185D01*
X158057537Y-98530494D01*
X158116502Y-98420180D01*
X158152812Y-98300482D01*
X158165072Y-98176000D01*
X158165072Y-96476000D01*
X158152812Y-96351518D01*
X158116502Y-96231820D01*
X158057537Y-96121506D01*
X157978185Y-96024815D01*
X157881494Y-95945463D01*
X157771180Y-95886498D01*
X157651482Y-95850188D01*
X157527000Y-95837928D01*
X155827000Y-95837928D01*
X155702518Y-95850188D01*
X155582820Y-95886498D01*
X155472506Y-95945463D01*
X155375815Y-96024815D01*
X155296463Y-96121506D01*
X155237498Y-96231820D01*
X155201188Y-96351518D01*
X155188928Y-96476000D01*
X155188928Y-98176000D01*
X155201188Y-98300482D01*
X155237498Y-98420180D01*
X155296463Y-98530494D01*
X155375815Y-98627185D01*
X155472506Y-98706537D01*
X155582820Y-98765502D01*
X155651687Y-98786393D01*
X155621866Y-98810866D01*
X155436294Y-99036986D01*
X155298401Y-99294966D01*
X155213487Y-99574889D01*
X155184815Y-99866000D01*
X153145317Y-99866000D01*
X153227272Y-99681337D01*
X153235964Y-99619810D01*
X153110163Y-99441000D01*
X152019000Y-99441000D01*
X151765000Y-99441000D01*
X150673837Y-99441000D01*
X150548036Y-99619810D01*
X147393964Y-99619810D01*
X147268163Y-99441000D01*
X146177000Y-99441000D01*
X145923000Y-99441000D01*
X144831837Y-99441000D01*
X144706036Y-99619810D01*
X143265803Y-99619810D01*
X143273236Y-99595309D01*
X143300943Y-99314000D01*
X143273236Y-99032691D01*
X143191182Y-98762192D01*
X143057932Y-98512899D01*
X142878608Y-98294392D01*
X142660101Y-98115068D01*
X142527143Y-98044000D01*
X144659388Y-98044000D01*
X144681785Y-98271400D01*
X144748115Y-98490060D01*
X144848929Y-98678669D01*
X144807725Y-98737118D01*
X144714728Y-98946663D01*
X144706036Y-99008190D01*
X144831837Y-99187000D01*
X145596891Y-99187000D01*
X145597600Y-99187215D01*
X145768021Y-99204000D01*
X146331979Y-99204000D01*
X146502400Y-99187215D01*
X146503109Y-99187000D01*
X147268163Y-99187000D01*
X147393964Y-99008190D01*
X147385272Y-98946663D01*
X147292275Y-98737118D01*
X147251071Y-98678669D01*
X147351885Y-98490060D01*
X147418215Y-98271400D01*
X147440612Y-98044000D01*
X150501388Y-98044000D01*
X150523785Y-98271400D01*
X150590115Y-98490060D01*
X150690929Y-98678669D01*
X150649725Y-98737118D01*
X150556728Y-98946663D01*
X150548036Y-99008190D01*
X150673837Y-99187000D01*
X151438891Y-99187000D01*
X151439600Y-99187215D01*
X151610021Y-99204000D01*
X152173979Y-99204000D01*
X152344400Y-99187215D01*
X152345109Y-99187000D01*
X153110163Y-99187000D01*
X153235964Y-99008190D01*
X153227272Y-98946663D01*
X153134275Y-98737118D01*
X153093071Y-98678669D01*
X153193885Y-98490060D01*
X153260215Y-98271400D01*
X153282612Y-98044000D01*
X153260215Y-97816600D01*
X153196907Y-97607902D01*
X153231502Y-97543180D01*
X153267812Y-97423482D01*
X153280072Y-97299000D01*
X153280072Y-96249000D01*
X153267812Y-96124518D01*
X153231502Y-96004820D01*
X153172537Y-95894506D01*
X153093185Y-95797815D01*
X152996494Y-95718463D01*
X152886180Y-95659498D01*
X152766482Y-95623188D01*
X152642000Y-95610928D01*
X151142000Y-95610928D01*
X151017518Y-95623188D01*
X150897820Y-95659498D01*
X150787506Y-95718463D01*
X150690815Y-95797815D01*
X150611463Y-95894506D01*
X150552498Y-96004820D01*
X150516188Y-96124518D01*
X150503928Y-96249000D01*
X150503928Y-97299000D01*
X150516188Y-97423482D01*
X150552498Y-97543180D01*
X150587093Y-97607902D01*
X150523785Y-97816600D01*
X150501388Y-98044000D01*
X147440612Y-98044000D01*
X147418215Y-97816600D01*
X147354907Y-97607902D01*
X147389502Y-97543180D01*
X147425812Y-97423482D01*
X147438072Y-97299000D01*
X147438072Y-96249000D01*
X147425812Y-96124518D01*
X147389502Y-96004820D01*
X147330537Y-95894506D01*
X147251185Y-95797815D01*
X147154494Y-95718463D01*
X147044180Y-95659498D01*
X146924482Y-95623188D01*
X146800000Y-95610928D01*
X145300000Y-95610928D01*
X145175518Y-95623188D01*
X145055820Y-95659498D01*
X144945506Y-95718463D01*
X144848815Y-95797815D01*
X144769463Y-95894506D01*
X144710498Y-96004820D01*
X144674188Y-96124518D01*
X144661928Y-96249000D01*
X144661928Y-97299000D01*
X144674188Y-97423482D01*
X144710498Y-97543180D01*
X144745093Y-97607902D01*
X144681785Y-97816600D01*
X144659388Y-98044000D01*
X142527143Y-98044000D01*
X142410808Y-97981818D01*
X142140309Y-97899764D01*
X141929492Y-97879000D01*
X141788508Y-97879000D01*
X141577691Y-97899764D01*
X141307192Y-97981818D01*
X141057899Y-98115068D01*
X140839392Y-98294392D01*
X140660068Y-98512899D01*
X140526818Y-98762192D01*
X140444764Y-99032691D01*
X140417057Y-99314000D01*
X133134000Y-99314000D01*
X133134000Y-99172665D01*
X133078853Y-98895426D01*
X132970680Y-98634273D01*
X132813637Y-98399241D01*
X132613759Y-98199363D01*
X132378727Y-98042320D01*
X132117574Y-97934147D01*
X131840335Y-97879000D01*
X131557665Y-97879000D01*
X131280426Y-97934147D01*
X131019273Y-98042320D01*
X130784241Y-98199363D01*
X130584363Y-98399241D01*
X130427320Y-98634273D01*
X130319147Y-98895426D01*
X130264000Y-99172665D01*
X129096589Y-99172665D01*
X129099599Y-99167034D01*
X129184513Y-98887111D01*
X129213185Y-98596000D01*
X129184513Y-98304889D01*
X129099599Y-98024966D01*
X128961706Y-97766986D01*
X128776134Y-97540866D01*
X128550014Y-97355294D01*
X128495209Y-97326000D01*
X128550014Y-97296706D01*
X128776134Y-97111134D01*
X128961706Y-96885014D01*
X129099599Y-96627034D01*
X129184513Y-96347111D01*
X129213185Y-96056000D01*
X129194932Y-95870665D01*
X130264000Y-95870665D01*
X130264000Y-96153335D01*
X130319147Y-96430574D01*
X130427320Y-96691727D01*
X130584363Y-96926759D01*
X130784241Y-97126637D01*
X131019273Y-97283680D01*
X131280426Y-97391853D01*
X131557665Y-97447000D01*
X131840335Y-97447000D01*
X132117574Y-97391853D01*
X132378727Y-97283680D01*
X132613759Y-97126637D01*
X132813637Y-96926759D01*
X132970680Y-96691727D01*
X133078853Y-96430574D01*
X133134000Y-96153335D01*
X133134000Y-96012000D01*
X140417057Y-96012000D01*
X140444764Y-96293309D01*
X140526818Y-96563808D01*
X140660068Y-96813101D01*
X140839392Y-97031608D01*
X141057899Y-97210932D01*
X141307192Y-97344182D01*
X141577691Y-97426236D01*
X141788508Y-97447000D01*
X141929492Y-97447000D01*
X142140309Y-97426236D01*
X142410808Y-97344182D01*
X142660101Y-97210932D01*
X142878608Y-97031608D01*
X143057932Y-96813101D01*
X143191182Y-96563808D01*
X143273236Y-96293309D01*
X143300943Y-96012000D01*
X143273236Y-95730691D01*
X143191182Y-95460192D01*
X143057932Y-95210899D01*
X142878608Y-94992392D01*
X142660101Y-94813068D01*
X142410808Y-94679818D01*
X142140309Y-94597764D01*
X141929492Y-94577000D01*
X141788508Y-94577000D01*
X141577691Y-94597764D01*
X141307192Y-94679818D01*
X141057899Y-94813068D01*
X140839392Y-94992392D01*
X140660068Y-95210899D01*
X140526818Y-95460192D01*
X140444764Y-95730691D01*
X140417057Y-96012000D01*
X133134000Y-96012000D01*
X133134000Y-95870665D01*
X133078853Y-95593426D01*
X132970680Y-95332273D01*
X132813637Y-95097241D01*
X132613759Y-94897363D01*
X132378727Y-94740320D01*
X132117574Y-94632147D01*
X131840335Y-94577000D01*
X131557665Y-94577000D01*
X131280426Y-94632147D01*
X131019273Y-94740320D01*
X130784241Y-94897363D01*
X130584363Y-95097241D01*
X130427320Y-95332273D01*
X130319147Y-95593426D01*
X130264000Y-95870665D01*
X129194932Y-95870665D01*
X129184513Y-95764889D01*
X129099599Y-95484966D01*
X128961706Y-95226986D01*
X128776134Y-95000866D01*
X128550014Y-94815294D01*
X128292034Y-94677401D01*
X128012111Y-94592487D01*
X127793950Y-94571000D01*
X127648050Y-94571000D01*
X127429889Y-94592487D01*
X127149966Y-94677401D01*
X126891986Y-94815294D01*
X126665866Y-95000866D01*
X126480294Y-95226986D01*
X126342401Y-95484966D01*
X126257487Y-95764889D01*
X126228815Y-96056000D01*
X122256000Y-96056000D01*
X122256000Y-92568665D01*
X130264000Y-92568665D01*
X130264000Y-92851335D01*
X130319147Y-93128574D01*
X130427320Y-93389727D01*
X130584363Y-93624759D01*
X130784241Y-93824637D01*
X131019273Y-93981680D01*
X131280426Y-94089853D01*
X131557665Y-94145000D01*
X131840335Y-94145000D01*
X132117574Y-94089853D01*
X132378727Y-93981680D01*
X132613759Y-93824637D01*
X132813637Y-93624759D01*
X132970680Y-93389727D01*
X133078853Y-93128574D01*
X133134000Y-92851335D01*
X133134000Y-92710000D01*
X140417057Y-92710000D01*
X140444764Y-92991309D01*
X140526818Y-93261808D01*
X140660068Y-93511101D01*
X140839392Y-93729608D01*
X141057899Y-93908932D01*
X141307192Y-94042182D01*
X141577691Y-94124236D01*
X141788508Y-94145000D01*
X141929492Y-94145000D01*
X142140309Y-94124236D01*
X142410808Y-94042182D01*
X142660101Y-93908932D01*
X142878608Y-93729608D01*
X143057932Y-93511101D01*
X143191182Y-93261808D01*
X143273236Y-92991309D01*
X143300943Y-92710000D01*
X143273236Y-92428691D01*
X143191182Y-92158192D01*
X143057932Y-91908899D01*
X142878608Y-91690392D01*
X142660101Y-91511068D01*
X142410808Y-91377818D01*
X142140309Y-91295764D01*
X141929492Y-91275000D01*
X141788508Y-91275000D01*
X141577691Y-91295764D01*
X141307192Y-91377818D01*
X141057899Y-91511068D01*
X140839392Y-91690392D01*
X140660068Y-91908899D01*
X140526818Y-92158192D01*
X140444764Y-92428691D01*
X140417057Y-92710000D01*
X133134000Y-92710000D01*
X133134000Y-92568665D01*
X133078853Y-92291426D01*
X132970680Y-92030273D01*
X132813637Y-91795241D01*
X132613759Y-91595363D01*
X132378727Y-91438320D01*
X132117574Y-91330147D01*
X131840335Y-91275000D01*
X131557665Y-91275000D01*
X131280426Y-91330147D01*
X131019273Y-91438320D01*
X130784241Y-91595363D01*
X130584363Y-91795241D01*
X130427320Y-92030273D01*
X130319147Y-92291426D01*
X130264000Y-92568665D01*
X122256000Y-92568665D01*
X122256000Y-86988285D01*
X122536000Y-86988285D01*
X122536000Y-87743715D01*
X122683377Y-88484628D01*
X122972467Y-89182554D01*
X123392161Y-89810670D01*
X123926330Y-90344839D01*
X124554446Y-90764533D01*
X125252372Y-91053623D01*
X125993285Y-91201000D01*
X126748715Y-91201000D01*
X127489628Y-91053623D01*
X128187554Y-90764533D01*
X128815670Y-90344839D01*
X129349839Y-89810670D01*
X129769533Y-89182554D01*
X130058623Y-88484628D01*
X130206000Y-87743715D01*
X130206000Y-86988285D01*
X152536000Y-86988285D01*
X152536000Y-87743715D01*
X152683377Y-88484628D01*
X152972467Y-89182554D01*
X153392161Y-89810670D01*
X153926330Y-90344839D01*
X154554446Y-90764533D01*
X155252372Y-91053623D01*
X155993285Y-91201000D01*
X156748715Y-91201000D01*
X157489628Y-91053623D01*
X158187554Y-90764533D01*
X158815670Y-90344839D01*
X159349839Y-89810670D01*
X159769533Y-89182554D01*
X160058623Y-88484628D01*
X160206000Y-87743715D01*
X160206000Y-86988285D01*
X160058623Y-86247372D01*
X159769533Y-85549446D01*
X159349839Y-84921330D01*
X158815670Y-84387161D01*
X158187554Y-83967467D01*
X157489628Y-83678377D01*
X156748715Y-83531000D01*
X155993285Y-83531000D01*
X155252372Y-83678377D01*
X154554446Y-83967467D01*
X153926330Y-84387161D01*
X153392161Y-84921330D01*
X152972467Y-85549446D01*
X152683377Y-86247372D01*
X152536000Y-86988285D01*
X130206000Y-86988285D01*
X130058623Y-86247372D01*
X129769533Y-85549446D01*
X129349839Y-84921330D01*
X128815670Y-84387161D01*
X128187554Y-83967467D01*
X127549074Y-83703000D01*
X142257810Y-83703000D01*
X142257810Y-86673000D01*
X144680191Y-86673000D01*
X144680191Y-83703000D01*
X142257810Y-83703000D01*
X127549074Y-83703000D01*
X127489628Y-83678377D01*
X126748715Y-83531000D01*
X125993285Y-83531000D01*
X125252372Y-83678377D01*
X124554446Y-83967467D01*
X123926330Y-84387161D01*
X123392161Y-84921330D01*
X122972467Y-85549446D01*
X122683377Y-86247372D01*
X122536000Y-86988285D01*
X122256000Y-86988285D01*
X122256000Y-83251000D01*
X160486000Y-83251000D01*
X160486001Y-116481000D01*
M02*
