G04 #@! TF.GenerationSoftware,KiCad,Pcbnew,(5.1.4)-1*
G04 #@! TF.CreationDate,2020-01-30T07:32:54+01:00*
G04 #@! TF.ProjectId,OneWire_Adapter,4f6e6557-6972-4655-9f41-646170746572,1.0*
G04 #@! TF.SameCoordinates,Original*
G04 #@! TF.FileFunction,Legend,Top*
G04 #@! TF.FilePolarity,Positive*
%FSLAX46Y46*%
G04 Gerber Fmt 4.6, Leading zero omitted, Abs format (unit mm)*
G04 Created by KiCad (PCBNEW (5.1.4)-1) date 2020-01-30 07:32:54*
%MOMM*%
%LPD*%
G04 APERTURE LIST*
%ADD10C,0.120000*%
%ADD11C,0.150000*%
G04 APERTURE END LIST*
D10*
X149879478Y-109171478D02*
G75*
G03X148041000Y-104733000I-1838478J1838478D01*
G01*
X146202522Y-109171478D02*
G75*
G02X148041000Y-104733000I1838478J1838478D01*
G01*
X146241000Y-109183000D02*
X149841000Y-109183000D01*
X152081000Y-102761000D02*
X151311000Y-102761000D01*
X144001000Y-102761000D02*
X144771000Y-102761000D01*
X151311000Y-101391000D02*
X144771000Y-101391000D01*
X151311000Y-104131000D02*
X151311000Y-101391000D01*
X144771000Y-104131000D02*
X151311000Y-104131000D01*
X144771000Y-101391000D02*
X144771000Y-104131000D01*
X155407000Y-96056000D02*
X156677000Y-96056000D01*
X155407000Y-97326000D02*
X155407000Y-96056000D01*
X157719929Y-102786000D02*
X158117000Y-102786000D01*
X157719929Y-102026000D02*
X158117000Y-102026000D01*
X166777000Y-102786000D02*
X160777000Y-102786000D01*
X166777000Y-102026000D02*
X166777000Y-102786000D01*
X160777000Y-102026000D02*
X166777000Y-102026000D01*
X158117000Y-101136000D02*
X160777000Y-101136000D01*
X157719929Y-100246000D02*
X158117000Y-100246000D01*
X157719929Y-99486000D02*
X158117000Y-99486000D01*
X166777000Y-100246000D02*
X160777000Y-100246000D01*
X166777000Y-99486000D02*
X166777000Y-100246000D01*
X160777000Y-99486000D02*
X166777000Y-99486000D01*
X158117000Y-98596000D02*
X160777000Y-98596000D01*
X157787000Y-97706000D02*
X158117000Y-97706000D01*
X157787000Y-96946000D02*
X158117000Y-96946000D01*
X160777000Y-97606000D02*
X166777000Y-97606000D01*
X160777000Y-97486000D02*
X166777000Y-97486000D01*
X160777000Y-97366000D02*
X166777000Y-97366000D01*
X160777000Y-97246000D02*
X166777000Y-97246000D01*
X160777000Y-97126000D02*
X166777000Y-97126000D01*
X160777000Y-97006000D02*
X166777000Y-97006000D01*
X166777000Y-97706000D02*
X160777000Y-97706000D01*
X166777000Y-96946000D02*
X166777000Y-97706000D01*
X160777000Y-96946000D02*
X166777000Y-96946000D01*
X160777000Y-95996000D02*
X158117000Y-95996000D01*
X160777000Y-103736000D02*
X160777000Y-95996000D01*
X158117000Y-103736000D02*
X160777000Y-103736000D01*
X158117000Y-95996000D02*
X158117000Y-103736000D01*
X127594000Y-104920000D02*
X126324000Y-104920000D01*
X127594000Y-103650000D02*
X127594000Y-104920000D01*
X125281071Y-95650000D02*
X124884000Y-95650000D01*
X125281071Y-96410000D02*
X124884000Y-96410000D01*
X116224000Y-95650000D02*
X122224000Y-95650000D01*
X116224000Y-96410000D02*
X116224000Y-95650000D01*
X122224000Y-96410000D02*
X116224000Y-96410000D01*
X124884000Y-97300000D02*
X122224000Y-97300000D01*
X125281071Y-98190000D02*
X124884000Y-98190000D01*
X125281071Y-98950000D02*
X124884000Y-98950000D01*
X116224000Y-98190000D02*
X122224000Y-98190000D01*
X116224000Y-98950000D02*
X116224000Y-98190000D01*
X122224000Y-98950000D02*
X116224000Y-98950000D01*
X124884000Y-99840000D02*
X122224000Y-99840000D01*
X125281071Y-100730000D02*
X124884000Y-100730000D01*
X125281071Y-101490000D02*
X124884000Y-101490000D01*
X116224000Y-100730000D02*
X122224000Y-100730000D01*
X116224000Y-101490000D02*
X116224000Y-100730000D01*
X122224000Y-101490000D02*
X116224000Y-101490000D01*
X124884000Y-102380000D02*
X122224000Y-102380000D01*
X125214000Y-103270000D02*
X124884000Y-103270000D01*
X125214000Y-104030000D02*
X124884000Y-104030000D01*
X122224000Y-103370000D02*
X116224000Y-103370000D01*
X122224000Y-103490000D02*
X116224000Y-103490000D01*
X122224000Y-103610000D02*
X116224000Y-103610000D01*
X122224000Y-103730000D02*
X116224000Y-103730000D01*
X122224000Y-103850000D02*
X116224000Y-103850000D01*
X122224000Y-103970000D02*
X116224000Y-103970000D01*
X116224000Y-103270000D02*
X122224000Y-103270000D01*
X116224000Y-104030000D02*
X116224000Y-103270000D01*
X122224000Y-104030000D02*
X116224000Y-104030000D01*
X122224000Y-104980000D02*
X124884000Y-104980000D01*
X122224000Y-94700000D02*
X122224000Y-104980000D01*
X124884000Y-94700000D02*
X122224000Y-94700000D01*
X124884000Y-104980000D02*
X124884000Y-94700000D01*
X150012522Y-98376478D02*
G75*
G03X154451000Y-96538000I1838478J1838478D01*
G01*
X150012522Y-94699522D02*
G75*
G02X154451000Y-96538000I1838478J-1838478D01*
G01*
X150001000Y-94738000D02*
X150001000Y-98338000D01*
X144211522Y-99646478D02*
G75*
G03X148650000Y-97808000I1838478J1838478D01*
G01*
X144211522Y-95969522D02*
G75*
G02X148650000Y-97808000I1838478J-1838478D01*
G01*
X144200000Y-96008000D02*
X144200000Y-99608000D01*
X140819000Y-91966000D02*
X140049000Y-91966000D01*
X132739000Y-91966000D02*
X133509000Y-91966000D01*
X140049000Y-90596000D02*
X133509000Y-90596000D01*
X140049000Y-93336000D02*
X140049000Y-90596000D01*
X133509000Y-93336000D02*
X140049000Y-93336000D01*
X133509000Y-90596000D02*
X133509000Y-93336000D01*
X140819000Y-95268000D02*
X140049000Y-95268000D01*
X132739000Y-95268000D02*
X133509000Y-95268000D01*
X140049000Y-93898000D02*
X133509000Y-93898000D01*
X140049000Y-96638000D02*
X140049000Y-93898000D01*
X133509000Y-96638000D02*
X140049000Y-96638000D01*
X133509000Y-93898000D02*
X133509000Y-96638000D01*
X140819000Y-98570000D02*
X140049000Y-98570000D01*
X132739000Y-98570000D02*
X133509000Y-98570000D01*
X140049000Y-97200000D02*
X133509000Y-97200000D01*
X140049000Y-99940000D02*
X140049000Y-97200000D01*
X133509000Y-99940000D02*
X140049000Y-99940000D01*
X133509000Y-97200000D02*
X133509000Y-99940000D01*
D11*
X155517047Y-105543380D02*
X154945619Y-105543380D01*
X155231333Y-105543380D02*
X155231333Y-104543380D01*
X155136095Y-104686238D01*
X155040857Y-104781476D01*
X154945619Y-104829095D01*
X155945619Y-105162428D02*
X156707523Y-105162428D01*
X157088476Y-104543380D02*
X157326571Y-105543380D01*
X157517047Y-104829095D01*
X157707523Y-105543380D01*
X157945619Y-104543380D01*
X158326571Y-105543380D02*
X158326571Y-104876714D01*
X158326571Y-104543380D02*
X158278952Y-104591000D01*
X158326571Y-104638619D01*
X158374190Y-104591000D01*
X158326571Y-104543380D01*
X158326571Y-104638619D01*
X158802761Y-105543380D02*
X158802761Y-104876714D01*
X158802761Y-105067190D02*
X158850380Y-104971952D01*
X158898000Y-104924333D01*
X158993238Y-104876714D01*
X159088476Y-104876714D01*
X159802761Y-105495761D02*
X159707523Y-105543380D01*
X159517047Y-105543380D01*
X159421809Y-105495761D01*
X159374190Y-105400523D01*
X159374190Y-105019571D01*
X159421809Y-104924333D01*
X159517047Y-104876714D01*
X159707523Y-104876714D01*
X159802761Y-104924333D01*
X159850380Y-105019571D01*
X159850380Y-105114809D01*
X159374190Y-105210047D01*
X123830571Y-105914380D02*
X123830571Y-106723904D01*
X123878190Y-106819142D01*
X123925809Y-106866761D01*
X124021047Y-106914380D01*
X124211523Y-106914380D01*
X124306761Y-106866761D01*
X124354380Y-106819142D01*
X124402000Y-106723904D01*
X124402000Y-105914380D01*
X124830571Y-106866761D02*
X124973428Y-106914380D01*
X125211523Y-106914380D01*
X125306761Y-106866761D01*
X125354380Y-106819142D01*
X125402000Y-106723904D01*
X125402000Y-106628666D01*
X125354380Y-106533428D01*
X125306761Y-106485809D01*
X125211523Y-106438190D01*
X125021047Y-106390571D01*
X124925809Y-106342952D01*
X124878190Y-106295333D01*
X124830571Y-106200095D01*
X124830571Y-106104857D01*
X124878190Y-106009619D01*
X124925809Y-105962000D01*
X125021047Y-105914380D01*
X125259142Y-105914380D01*
X125402000Y-105962000D01*
X125782952Y-106628666D02*
X126259142Y-106628666D01*
X125687714Y-106914380D02*
X126021047Y-105914380D01*
X126354380Y-106914380D01*
X127259142Y-106914380D02*
X126925809Y-106438190D01*
X126687714Y-106914380D02*
X126687714Y-105914380D01*
X127068666Y-105914380D01*
X127163904Y-105962000D01*
X127211523Y-106009619D01*
X127259142Y-106104857D01*
X127259142Y-106247714D01*
X127211523Y-106342952D01*
X127163904Y-106390571D01*
X127068666Y-106438190D01*
X126687714Y-106438190D01*
X127544857Y-105914380D02*
X128116285Y-105914380D01*
X127830571Y-106914380D02*
X127830571Y-105914380D01*
M02*
