G04 #@! TF.GenerationSoftware,KiCad,Pcbnew,(5.1.4)-1*
G04 #@! TF.CreationDate,2020-01-30T07:32:54+01:00*
G04 #@! TF.ProjectId,OneWire_Adapter,4f6e6557-6972-4655-9f41-646170746572,1.0*
G04 #@! TF.SameCoordinates,Original*
G04 #@! TF.FileFunction,Soldermask,Top*
G04 #@! TF.FilePolarity,Negative*
%FSLAX46Y46*%
G04 Gerber Fmt 4.6, Leading zero omitted, Abs format (unit mm)*
G04 Created by KiCad (PCBNEW (5.1.4)-1) date 2020-01-30 07:32:54*
%MOMM*%
%LPD*%
G04 APERTURE LIST*
%ADD10R,1.050000X1.500000*%
%ADD11O,1.050000X1.500000*%
%ADD12O,1.600000X1.600000*%
%ADD13C,1.600000*%
%ADD14C,6.400000*%
%ADD15C,0.800000*%
%ADD16O,1.700000X1.700000*%
%ADD17R,1.700000X1.700000*%
%ADD18R,1.500000X1.050000*%
%ADD19O,1.500000X1.050000*%
G04 APERTURE END LIST*
D10*
X146771000Y-107333000D03*
D11*
X149311000Y-107333000D03*
X148041000Y-107333000D03*
D12*
X153121000Y-102761000D03*
D13*
X142961000Y-102761000D03*
D14*
X126371000Y-112366000D03*
D15*
X128771000Y-112366000D03*
X128068056Y-114063056D03*
X126371000Y-114766000D03*
X124673944Y-114063056D03*
X123971000Y-112366000D03*
X124673944Y-110668944D03*
X126371000Y-109966000D03*
X128068056Y-110668944D03*
D14*
X126371000Y-87366000D03*
D15*
X128771000Y-87366000D03*
X128068056Y-89063056D03*
X126371000Y-89766000D03*
X124673944Y-89063056D03*
X123971000Y-87366000D03*
X124673944Y-85668944D03*
X126371000Y-84966000D03*
X128068056Y-85668944D03*
D14*
X156371000Y-87366000D03*
D15*
X158771000Y-87366000D03*
X158068056Y-89063056D03*
X156371000Y-89766000D03*
X154673944Y-89063056D03*
X153971000Y-87366000D03*
X154673944Y-85668944D03*
X156371000Y-84966000D03*
X158068056Y-85668944D03*
D16*
X156677000Y-102406000D03*
X156677000Y-99866000D03*
D17*
X156677000Y-97326000D03*
D16*
X126324000Y-96030000D03*
X126324000Y-98570000D03*
X126324000Y-101110000D03*
D17*
X126324000Y-103650000D03*
D18*
X151851000Y-95268000D03*
D19*
X151851000Y-97808000D03*
X151851000Y-96538000D03*
D18*
X146050000Y-96538000D03*
D19*
X146050000Y-99078000D03*
X146050000Y-97808000D03*
D12*
X141859000Y-91966000D03*
D13*
X131699000Y-91966000D03*
D12*
X141859000Y-95268000D03*
D13*
X131699000Y-95268000D03*
D12*
X141859000Y-98570000D03*
D13*
X131699000Y-98570000D03*
D15*
X158068056Y-110668944D03*
X156371000Y-109966000D03*
X154673944Y-110668944D03*
X153971000Y-112366000D03*
X154673944Y-114063056D03*
X156371000Y-114766000D03*
X158068056Y-114063056D03*
X158771000Y-112366000D03*
D14*
X156371000Y-112366000D03*
M02*
