G04 #@! TF.GenerationSoftware,KiCad,Pcbnew,(5.1.4)-1*
G04 #@! TF.CreationDate,2020-01-29T13:18:04+01:00*
G04 #@! TF.ProjectId,OneWire_Adapter,4f6e6557-6972-4655-9f41-646170746572,1.0*
G04 #@! TF.SameCoordinates,Original*
G04 #@! TF.FileFunction,Legend,Top*
G04 #@! TF.FilePolarity,Positive*
%FSLAX46Y46*%
G04 Gerber Fmt 4.6, Leading zero omitted, Abs format (unit mm)*
G04 Created by KiCad (PCBNEW (5.1.4)-1) date 2020-01-29 13:18:04*
%MOMM*%
%LPD*%
G04 APERTURE LIST*
%ADD10C,0.120000*%
%ADD11C,0.150000*%
G04 APERTURE END LIST*
D10*
X155407000Y-96056000D02*
X156677000Y-96056000D01*
X155407000Y-97326000D02*
X155407000Y-96056000D01*
X157719929Y-102786000D02*
X158117000Y-102786000D01*
X157719929Y-102026000D02*
X158117000Y-102026000D01*
X166777000Y-102786000D02*
X160777000Y-102786000D01*
X166777000Y-102026000D02*
X166777000Y-102786000D01*
X160777000Y-102026000D02*
X166777000Y-102026000D01*
X158117000Y-101136000D02*
X160777000Y-101136000D01*
X157719929Y-100246000D02*
X158117000Y-100246000D01*
X157719929Y-99486000D02*
X158117000Y-99486000D01*
X166777000Y-100246000D02*
X160777000Y-100246000D01*
X166777000Y-99486000D02*
X166777000Y-100246000D01*
X160777000Y-99486000D02*
X166777000Y-99486000D01*
X158117000Y-98596000D02*
X160777000Y-98596000D01*
X157787000Y-97706000D02*
X158117000Y-97706000D01*
X157787000Y-96946000D02*
X158117000Y-96946000D01*
X160777000Y-97606000D02*
X166777000Y-97606000D01*
X160777000Y-97486000D02*
X166777000Y-97486000D01*
X160777000Y-97366000D02*
X166777000Y-97366000D01*
X160777000Y-97246000D02*
X166777000Y-97246000D01*
X160777000Y-97126000D02*
X166777000Y-97126000D01*
X160777000Y-97006000D02*
X166777000Y-97006000D01*
X166777000Y-97706000D02*
X160777000Y-97706000D01*
X166777000Y-96946000D02*
X166777000Y-97706000D01*
X160777000Y-96946000D02*
X166777000Y-96946000D01*
X160777000Y-95996000D02*
X158117000Y-95996000D01*
X160777000Y-103736000D02*
X160777000Y-95996000D01*
X158117000Y-103736000D02*
X160777000Y-103736000D01*
X158117000Y-95996000D02*
X158117000Y-103736000D01*
X128991000Y-104946000D02*
X127721000Y-104946000D01*
X128991000Y-103676000D02*
X128991000Y-104946000D01*
X126678071Y-95676000D02*
X126281000Y-95676000D01*
X126678071Y-96436000D02*
X126281000Y-96436000D01*
X117621000Y-95676000D02*
X123621000Y-95676000D01*
X117621000Y-96436000D02*
X117621000Y-95676000D01*
X123621000Y-96436000D02*
X117621000Y-96436000D01*
X126281000Y-97326000D02*
X123621000Y-97326000D01*
X126678071Y-98216000D02*
X126281000Y-98216000D01*
X126678071Y-98976000D02*
X126281000Y-98976000D01*
X117621000Y-98216000D02*
X123621000Y-98216000D01*
X117621000Y-98976000D02*
X117621000Y-98216000D01*
X123621000Y-98976000D02*
X117621000Y-98976000D01*
X126281000Y-99866000D02*
X123621000Y-99866000D01*
X126678071Y-100756000D02*
X126281000Y-100756000D01*
X126678071Y-101516000D02*
X126281000Y-101516000D01*
X117621000Y-100756000D02*
X123621000Y-100756000D01*
X117621000Y-101516000D02*
X117621000Y-100756000D01*
X123621000Y-101516000D02*
X117621000Y-101516000D01*
X126281000Y-102406000D02*
X123621000Y-102406000D01*
X126611000Y-103296000D02*
X126281000Y-103296000D01*
X126611000Y-104056000D02*
X126281000Y-104056000D01*
X123621000Y-103396000D02*
X117621000Y-103396000D01*
X123621000Y-103516000D02*
X117621000Y-103516000D01*
X123621000Y-103636000D02*
X117621000Y-103636000D01*
X123621000Y-103756000D02*
X117621000Y-103756000D01*
X123621000Y-103876000D02*
X117621000Y-103876000D01*
X123621000Y-103996000D02*
X117621000Y-103996000D01*
X117621000Y-103296000D02*
X123621000Y-103296000D01*
X117621000Y-104056000D02*
X117621000Y-103296000D01*
X123621000Y-104056000D02*
X117621000Y-104056000D01*
X123621000Y-105006000D02*
X126281000Y-105006000D01*
X123621000Y-94726000D02*
X123621000Y-105006000D01*
X126281000Y-94726000D02*
X123621000Y-94726000D01*
X126281000Y-105006000D02*
X126281000Y-94726000D01*
X150053522Y-99882478D02*
G75*
G03X154492000Y-98044000I1838478J1838478D01*
G01*
X150053522Y-96205522D02*
G75*
G02X154492000Y-98044000I1838478J-1838478D01*
G01*
X150042000Y-96244000D02*
X150042000Y-99844000D01*
X144211522Y-99882478D02*
G75*
G03X148650000Y-98044000I1838478J1838478D01*
G01*
X144211522Y-96205522D02*
G75*
G02X148650000Y-98044000I1838478J-1838478D01*
G01*
X144200000Y-96244000D02*
X144200000Y-99844000D01*
X140819000Y-92710000D02*
X140049000Y-92710000D01*
X132739000Y-92710000D02*
X133509000Y-92710000D01*
X140049000Y-91340000D02*
X133509000Y-91340000D01*
X140049000Y-94080000D02*
X140049000Y-91340000D01*
X133509000Y-94080000D02*
X140049000Y-94080000D01*
X133509000Y-91340000D02*
X133509000Y-94080000D01*
X140819000Y-96012000D02*
X140049000Y-96012000D01*
X132739000Y-96012000D02*
X133509000Y-96012000D01*
X140049000Y-94642000D02*
X133509000Y-94642000D01*
X140049000Y-97382000D02*
X140049000Y-94642000D01*
X133509000Y-97382000D02*
X140049000Y-97382000D01*
X133509000Y-94642000D02*
X133509000Y-97382000D01*
X140819000Y-99314000D02*
X140049000Y-99314000D01*
X132739000Y-99314000D02*
X133509000Y-99314000D01*
X140049000Y-97944000D02*
X133509000Y-97944000D01*
X140049000Y-100684000D02*
X140049000Y-97944000D01*
X133509000Y-100684000D02*
X140049000Y-100684000D01*
X133509000Y-97944000D02*
X133509000Y-100684000D01*
D11*
X155517047Y-105543380D02*
X154945619Y-105543380D01*
X155231333Y-105543380D02*
X155231333Y-104543380D01*
X155136095Y-104686238D01*
X155040857Y-104781476D01*
X154945619Y-104829095D01*
X155945619Y-105162428D02*
X156707523Y-105162428D01*
X157088476Y-104543380D02*
X157326571Y-105543380D01*
X157517047Y-104829095D01*
X157707523Y-105543380D01*
X157945619Y-104543380D01*
X158326571Y-105543380D02*
X158326571Y-104876714D01*
X158326571Y-104543380D02*
X158278952Y-104591000D01*
X158326571Y-104638619D01*
X158374190Y-104591000D01*
X158326571Y-104543380D01*
X158326571Y-104638619D01*
X158802761Y-105543380D02*
X158802761Y-104876714D01*
X158802761Y-105067190D02*
X158850380Y-104971952D01*
X158898000Y-104924333D01*
X158993238Y-104876714D01*
X159088476Y-104876714D01*
X159802761Y-105495761D02*
X159707523Y-105543380D01*
X159517047Y-105543380D01*
X159421809Y-105495761D01*
X159374190Y-105400523D01*
X159374190Y-105019571D01*
X159421809Y-104924333D01*
X159517047Y-104876714D01*
X159707523Y-104876714D01*
X159802761Y-104924333D01*
X159850380Y-105019571D01*
X159850380Y-105114809D01*
X159374190Y-105210047D01*
X125227571Y-105940380D02*
X125227571Y-106749904D01*
X125275190Y-106845142D01*
X125322809Y-106892761D01*
X125418047Y-106940380D01*
X125608523Y-106940380D01*
X125703761Y-106892761D01*
X125751380Y-106845142D01*
X125799000Y-106749904D01*
X125799000Y-105940380D01*
X126227571Y-106892761D02*
X126370428Y-106940380D01*
X126608523Y-106940380D01*
X126703761Y-106892761D01*
X126751380Y-106845142D01*
X126799000Y-106749904D01*
X126799000Y-106654666D01*
X126751380Y-106559428D01*
X126703761Y-106511809D01*
X126608523Y-106464190D01*
X126418047Y-106416571D01*
X126322809Y-106368952D01*
X126275190Y-106321333D01*
X126227571Y-106226095D01*
X126227571Y-106130857D01*
X126275190Y-106035619D01*
X126322809Y-105988000D01*
X126418047Y-105940380D01*
X126656142Y-105940380D01*
X126799000Y-105988000D01*
X127179952Y-106654666D02*
X127656142Y-106654666D01*
X127084714Y-106940380D02*
X127418047Y-105940380D01*
X127751380Y-106940380D01*
X128656142Y-106940380D02*
X128322809Y-106464190D01*
X128084714Y-106940380D02*
X128084714Y-105940380D01*
X128465666Y-105940380D01*
X128560904Y-105988000D01*
X128608523Y-106035619D01*
X128656142Y-106130857D01*
X128656142Y-106273714D01*
X128608523Y-106368952D01*
X128560904Y-106416571D01*
X128465666Y-106464190D01*
X128084714Y-106464190D01*
X128941857Y-105940380D02*
X129513285Y-105940380D01*
X129227571Y-106940380D02*
X129227571Y-105940380D01*
M02*
