M48
; DRILL file {KiCad (5.1.4)-1} date 30.01.2020 07:32:56
; FORMAT={-:-/ absolute / inch / decimal}
; #@! TF.CreationDate,2020-01-30T07:32:56+01:00
; #@! TF.GenerationSoftware,Kicad,Pcbnew,(5.1.4)-1
; #@! TF.FileFunction,Plated,1,2,PTH
FMAT,2
INCH
T1C0.0157
T2C0.0197
T3C0.0295
T4C0.0315
T5C0.0394
T6C0.1260
%
G90
G05
T1
X5.8684Y-3.7507
T2
X6.0619Y-3.4396
X6.0895Y-3.3728
X6.0895Y-3.5064
X6.1563Y-3.3451
X6.1563Y-3.5341
X6.2232Y-3.3728
X6.2232Y-3.5064
X6.2508Y-3.4396
X6.0619Y-4.4239
X6.0895Y-4.357
X6.0895Y-4.4907
X6.1563Y-4.3294
X6.1563Y-4.5183
X6.2232Y-4.357
X6.2232Y-4.4907
X6.2508Y-4.4239
X4.8807Y-3.4396
X4.9084Y-3.3728
X4.9084Y-3.5064
X4.9752Y-3.3451
X4.9752Y-3.5341
X5.042Y-3.3728
X5.042Y-3.5064
X5.0697Y-3.4396
X4.8807Y-4.4239
X4.9084Y-4.357
X4.9084Y-4.4907
X4.9752Y-4.3294
X4.9752Y-4.5183
X5.042Y-4.357
X5.042Y-4.4907
X5.0697Y-4.4239
T3
X5.75Y-3.8007
X5.75Y-3.8507
X5.75Y-3.9007
X5.9784Y-3.7507
X5.9784Y-3.8007
X5.9784Y-3.8507
X5.7784Y-4.2257
X5.8284Y-4.2257
X5.8784Y-4.2257
T4
X5.6284Y-4.0457
X6.0284Y-4.0457
X5.185Y-3.6207
X5.585Y-3.6207
X5.185Y-3.8807
X5.585Y-3.8807
X5.185Y-3.7507
X5.585Y-3.7507
T5
X4.9734Y-3.7807
X4.9734Y-3.8807
X4.9734Y-3.9807
X4.9734Y-4.0807
X6.1684Y-3.8317
X6.1684Y-3.9317
X6.1684Y-4.0317
T6
X6.1563Y-3.4396
X4.9752Y-3.4396
X4.9752Y-4.4239
X6.1563Y-4.4239
T0
M30
