G04 #@! TF.GenerationSoftware,KiCad,Pcbnew,(5.1.4)-1*
G04 #@! TF.CreationDate,2020-01-29T13:18:04+01:00*
G04 #@! TF.ProjectId,OneWire_Adapter,4f6e6557-6972-4655-9f41-646170746572,1.0*
G04 #@! TF.SameCoordinates,Original*
G04 #@! TF.FileFunction,Soldermask,Top*
G04 #@! TF.FilePolarity,Negative*
%FSLAX46Y46*%
G04 Gerber Fmt 4.6, Leading zero omitted, Abs format (unit mm)*
G04 Created by KiCad (PCBNEW (5.1.4)-1) date 2020-01-29 13:18:04*
%MOMM*%
%LPD*%
G04 APERTURE LIST*
%ADD10C,6.400000*%
%ADD11C,0.800000*%
%ADD12O,1.700000X1.700000*%
%ADD13R,1.700000X1.700000*%
%ADD14R,1.500000X1.050000*%
%ADD15O,1.500000X1.050000*%
%ADD16O,1.600000X1.600000*%
%ADD17C,1.600000*%
G04 APERTURE END LIST*
D10*
X126371000Y-112366000D03*
D11*
X128771000Y-112366000D03*
X128068056Y-114063056D03*
X126371000Y-114766000D03*
X124673944Y-114063056D03*
X123971000Y-112366000D03*
X124673944Y-110668944D03*
X126371000Y-109966000D03*
X128068056Y-110668944D03*
D10*
X126371000Y-87366000D03*
D11*
X128771000Y-87366000D03*
X128068056Y-89063056D03*
X126371000Y-89766000D03*
X124673944Y-89063056D03*
X123971000Y-87366000D03*
X124673944Y-85668944D03*
X126371000Y-84966000D03*
X128068056Y-85668944D03*
D10*
X156371000Y-87366000D03*
D11*
X158771000Y-87366000D03*
X158068056Y-89063056D03*
X156371000Y-89766000D03*
X154673944Y-89063056D03*
X153971000Y-87366000D03*
X154673944Y-85668944D03*
X156371000Y-84966000D03*
X158068056Y-85668944D03*
D12*
X156677000Y-102406000D03*
X156677000Y-99866000D03*
D13*
X156677000Y-97326000D03*
D12*
X127721000Y-96056000D03*
X127721000Y-98596000D03*
X127721000Y-101136000D03*
D13*
X127721000Y-103676000D03*
D14*
X151892000Y-96774000D03*
D15*
X151892000Y-99314000D03*
X151892000Y-98044000D03*
D14*
X146050000Y-96774000D03*
D15*
X146050000Y-99314000D03*
X146050000Y-98044000D03*
D16*
X141859000Y-92710000D03*
D17*
X131699000Y-92710000D03*
D16*
X141859000Y-96012000D03*
D17*
X131699000Y-96012000D03*
D16*
X141859000Y-99314000D03*
D17*
X131699000Y-99314000D03*
D11*
X158068056Y-110668944D03*
X156371000Y-109966000D03*
X154673944Y-110668944D03*
X153971000Y-112366000D03*
X154673944Y-114063056D03*
X156371000Y-114766000D03*
X158068056Y-114063056D03*
X158771000Y-112366000D03*
D10*
X156371000Y-112366000D03*
M02*
